# MagicaVoxel @ Ephtracy

# material
mtllib axe.mtl
usemtl palette

# normals
vn -1 0 0
vn 1 0 0
vn 0 0 1
vn 0 0 -1
vn 0 -1 0
vn 0 1 0

# texcoords
vt 0.0214844 0.5
vt 0.861328 0.5
vt 0.958984 0.5
vt 0.962891 0.5
vt 0.966797 0.5

# verts
v -1 19 11
v -1 19 4
v -1 19 -34
v -1 19 -35
v -1 20 23
v -1 20 22
v -1 20 16
v -1 20 15
v -1 20 11
v -1 20 10
v -1 21 23
v -1 21 22
v -1 21 16
v -1 21 15
v -1 21 11
v -1 21 10
v -1 22 11
v -1 22 4
v -1 22 -34
v -1 22 -35
v 0 14 19
v 0 14 18
v 0 15 20
v 0 15 19
v 0 15 18
v 0 15 17
v 0 16 21
v 0 16 20
v 0 16 17
v 0 16 16
v 0 17 22
v 0 17 21
v 0 17 16
v 0 17 15
v 0 18 23
v 0 18 22
v 0 18 15
v 0 18 14
v 0 19 29
v 0 19 23
v 0 19 14
v 0 19 11
v 0 20 35
v 0 20 33
v 0 20 31
v 0 20 29
v 0 20 23
v 0 20 22
v 0 20 16
v 0 20 15
v 0 20 11
v 0 20 10
v 0 21 35
v 0 21 33
v 0 21 31
v 0 21 29
v 0 21 23
v 0 21 22
v 0 21 16
v 0 21 15
v 0 21 11
v 0 21 10
v 0 22 29
v 0 22 25
v 0 22 13
v 0 22 11
v 0 23 26
v 0 23 25
v 0 23 13
v 0 23 12
v 0 24 27
v 0 24 26
v 0 24 12
v 0 24 11
v 0 25 28
v 0 25 27
v 0 25 11
v 0 25 10
v 0 26 29
v 0 26 28
v 0 26 10
v 0 26 9
v 0 27 30
v 0 27 29
v 0 27 9
v 0 27 8
v 0 28 31
v 0 28 30
v 0 28 8
v 0 28 7
v 0 29 32
v 0 29 31
v 0 29 7
v 0 29 6
v 0 30 31
v 0 30 30
v 0 30 8
v 0 30 7
v 0 31 32
v 0 31 31
v 0 31 30
v 0 31 29
v 0 31 9
v 0 31 8
v 0 31 7
v 0 31 6
v 0 32 31
v 0 32 30
v 0 32 29
v 0 32 27
v 0 32 11
v 0 32 9
v 0 32 8
v 0 32 7
v 0 33 30
v 0 33 28
v 0 33 27
v 0 33 25
v 0 33 13
v 0 33 11
v 0 33 10
v 0 33 8
v 0 34 28
v 0 34 26
v 0 34 25
v 0 34 23
v 0 34 15
v 0 34 13
v 0 34 12
v 0 34 10
v 0 35 26
v 0 35 24
v 0 35 23
v 0 35 21
v 0 35 17
v 0 35 15
v 0 35 14
v 0 35 12
v 0 36 24
v 0 36 22
v 0 36 21
v 0 36 17
v 0 36 16
v 0 36 14
v 0 37 22
v 0 37 16
v 1 14 19
v 1 14 18
v 1 15 20
v 1 15 19
v 1 15 18
v 1 15 17
v 1 16 21
v 1 16 20
v 1 16 17
v 1 16 16
v 1 17 22
v 1 17 21
v 1 17 16
v 1 17 15
v 1 18 23
v 1 18 22
v 1 18 15
v 1 18 14
v 1 19 29
v 1 19 23
v 1 19 14
v 1 19 11
v 1 20 35
v 1 20 33
v 1 20 31
v 1 20 29
v 1 20 23
v 1 20 22
v 1 20 16
v 1 20 15
v 1 20 11
v 1 20 10
v 1 21 35
v 1 21 33
v 1 21 31
v 1 21 29
v 1 21 23
v 1 21 22
v 1 21 16
v 1 21 15
v 1 21 11
v 1 21 10
v 1 22 29
v 1 22 25
v 1 22 13
v 1 22 11
v 1 23 26
v 1 23 25
v 1 23 13
v 1 23 12
v 1 24 27
v 1 24 26
v 1 24 12
v 1 24 11
v 1 25 28
v 1 25 27
v 1 25 11
v 1 25 10
v 1 26 29
v 1 26 28
v 1 26 10
v 1 26 9
v 1 27 30
v 1 27 29
v 1 27 9
v 1 27 8
v 1 28 31
v 1 28 30
v 1 28 8
v 1 28 7
v 1 29 32
v 1 29 31
v 1 29 7
v 1 29 6
v 1 30 31
v 1 30 30
v 1 30 8
v 1 30 7
v 1 31 32
v 1 31 31
v 1 31 30
v 1 31 29
v 1 31 9
v 1 31 8
v 1 31 7
v 1 31 6
v 1 32 31
v 1 32 30
v 1 32 29
v 1 32 27
v 1 32 11
v 1 32 9
v 1 32 8
v 1 32 7
v 1 33 30
v 1 33 28
v 1 33 27
v 1 33 25
v 1 33 13
v 1 33 11
v 1 33 10
v 1 33 8
v 1 34 28
v 1 34 26
v 1 34 25
v 1 34 23
v 1 34 15
v 1 34 13
v 1 34 12
v 1 34 10
v 1 35 26
v 1 35 24
v 1 35 23
v 1 35 21
v 1 35 17
v 1 35 15
v 1 35 14
v 1 35 12
v 1 36 24
v 1 36 22
v 1 36 21
v 1 36 17
v 1 36 16
v 1 36 14
v 1 37 22
v 1 37 16
v 2 19 11
v 2 19 4
v 2 19 -34
v 2 19 -35
v 2 20 23
v 2 20 22
v 2 20 16
v 2 20 15
v 2 20 11
v 2 20 10
v 2 21 23
v 2 21 22
v 2 21 16
v 2 21 15
v 2 21 11
v 2 21 10
v 2 22 11
v 2 22 4
v 2 22 -34
v 2 22 -35
v 0 20 35
v 0 21 35
v 1 20 35
v 1 21 35
v 0 29 32
v 0 31 32
v 1 29 32
v 1 31 32
v 0 28 31
v 0 29 31
v 0 31 31
v 0 32 31
v 1 28 31
v 1 29 31
v 1 31 31
v 1 32 31
v 0 27 30
v 0 28 30
v 0 32 30
v 0 33 30
v 1 27 30
v 1 28 30
v 1 32 30
v 1 33 30
v 0 19 29
v 0 20 29
v 0 21 29
v 0 22 29
v 0 26 29
v 0 27 29
v 1 19 29
v 1 20 29
v 1 21 29
v 1 22 29
v 1 26 29
v 1 27 29
v 0 25 28
v 0 26 28
v 0 33 28
v 0 34 28
v 1 25 28
v 1 26 28
v 1 33 28
v 1 34 28
v 0 24 27
v 0 25 27
v 1 24 27
v 1 25 27
v 0 23 26
v 0 24 26
v 0 34 26
v 0 35 26
v 1 23 26
v 1 24 26
v 1 34 26
v 1 35 26
v 0 22 25
v 0 23 25
v 1 22 25
v 1 23 25
v 0 35 24
v 0 36 24
v 1 35 24
v 1 36 24
v -1 20 23
v -1 21 23
v 0 18 23
v 0 19 23
v 0 20 23
v 0 21 23
v 1 18 23
v 1 19 23
v 1 20 23
v 1 21 23
v 2 20 23
v 2 21 23
v 0 17 22
v 0 18 22
v 0 36 22
v 0 37 22
v 1 17 22
v 1 18 22
v 1 36 22
v 1 37 22
v 0 16 21
v 0 17 21
v 1 16 21
v 1 17 21
v 0 15 20
v 0 16 20
v 1 15 20
v 1 16 20
v 0 14 19
v 0 15 19
v 1 14 19
v 1 15 19
v -1 20 16
v -1 21 16
v 0 20 16
v 0 21 16
v 1 20 16
v 1 21 16
v 2 20 16
v 2 21 16
v -1 19 11
v -1 20 11
v -1 21 11
v -1 22 11
v 0 19 11
v 0 20 11
v 0 21 11
v 0 22 11
v 1 19 11
v 1 20 11
v 1 21 11
v 1 22 11
v 2 19 11
v 2 20 11
v 2 21 11
v 2 22 11
v -1 20 10
v -1 21 10
v 0 20 10
v 0 21 10
v 1 20 10
v 1 21 10
v 2 20 10
v 2 21 10
v -1 20 22
v -1 21 22
v 0 20 22
v 0 21 22
v 1 20 22
v 1 21 22
v 2 20 22
v 2 21 22
v 0 14 18
v 0 15 18
v 1 14 18
v 1 15 18
v 0 15 17
v 0 16 17
v 1 15 17
v 1 16 17
v 0 16 16
v 0 17 16
v 0 36 16
v 0 37 16
v 1 16 16
v 1 17 16
v 1 36 16
v 1 37 16
v -1 20 15
v -1 21 15
v 0 17 15
v 0 18 15
v 0 20 15
v 0 21 15
v 1 17 15
v 1 18 15
v 1 20 15
v 1 21 15
v 2 20 15
v 2 21 15
v 0 18 14
v 0 19 14
v 0 35 14
v 0 36 14
v 1 18 14
v 1 19 14
v 1 35 14
v 1 36 14
v 0 22 13
v 0 23 13
v 1 22 13
v 1 23 13
v 0 23 12
v 0 24 12
v 0 34 12
v 0 35 12
v 1 23 12
v 1 24 12
v 1 34 12
v 1 35 12
v 0 24 11
v 0 25 11
v 1 24 11
v 1 25 11
v 0 25 10
v 0 26 10
v 0 33 10
v 0 34 10
v 1 25 10
v 1 26 10
v 1 33 10
v 1 34 10
v 0 26 9
v 0 27 9
v 1 26 9
v 1 27 9
v 0 27 8
v 0 28 8
v 0 32 8
v 0 33 8
v 1 27 8
v 1 28 8
v 1 32 8
v 1 33 8
v 0 28 7
v 0 29 7
v 0 31 7
v 0 32 7
v 1 28 7
v 1 29 7
v 1 31 7
v 1 32 7
v 0 29 6
v 0 31 6
v 1 29 6
v 1 31 6
v -1 19 -35
v -1 22 -35
v 2 19 -35
v 2 22 -35
v 0 14 19
v 1 14 19
v 0 14 18
v 1 14 18
v 0 15 20
v 1 15 20
v 0 15 19
v 1 15 19
v 0 15 18
v 1 15 18
v 0 15 17
v 1 15 17
v 0 16 21
v 1 16 21
v 0 16 20
v 1 16 20
v 0 16 17
v 1 16 17
v 0 16 16
v 1 16 16
v 0 17 22
v 1 17 22
v 0 17 21
v 1 17 21
v 0 17 16
v 1 17 16
v 0 17 15
v 1 17 15
v 0 18 23
v 1 18 23
v 0 18 22
v 1 18 22
v 0 18 15
v 1 18 15
v 0 18 14
v 1 18 14
v 0 19 29
v 1 19 29
v 0 19 23
v 1 19 23
v 0 19 14
v 1 19 14
v -1 19 11
v 0 19 11
v 1 19 11
v 2 19 11
v -1 19 4
v 2 19 4
v -1 19 -34
v 2 19 -34
v -1 19 -35
v 2 19 -35
v 0 20 35
v 1 20 35
v 0 20 33
v 1 20 33
v 0 20 31
v 1 20 31
v 0 20 29
v 1 20 29
v -1 20 23
v 0 20 23
v 1 20 23
v 2 20 23
v -1 20 22
v 0 20 22
v 1 20 22
v 2 20 22
v -1 20 16
v 0 20 16
v 1 20 16
v 2 20 16
v -1 20 15
v 0 20 15
v 1 20 15
v 2 20 15
v -1 21 11
v 0 21 11
v 1 21 11
v 2 21 11
v -1 21 10
v 0 21 10
v 1 21 10
v 2 21 10
v 0 23 26
v 1 23 26
v 0 23 25
v 1 23 25
v 0 23 13
v 1 23 13
v 0 23 12
v 1 23 12
v 0 24 27
v 1 24 27
v 0 24 26
v 1 24 26
v 0 24 12
v 1 24 12
v 0 24 11
v 1 24 11
v 0 25 28
v 1 25 28
v 0 25 27
v 1 25 27
v 0 25 11
v 1 25 11
v 0 25 10
v 1 25 10
v 0 26 29
v 1 26 29
v 0 26 28
v 1 26 28
v 0 26 10
v 1 26 10
v 0 26 9
v 1 26 9
v 0 27 30
v 1 27 30
v 0 27 29
v 1 27 29
v 0 27 9
v 1 27 9
v 0 27 8
v 1 27 8
v 0 28 31
v 1 28 31
v 0 28 30
v 1 28 30
v 0 28 8
v 1 28 8
v 0 28 7
v 1 28 7
v 0 29 32
v 1 29 32
v 0 29 31
v 1 29 31
v 0 29 7
v 1 29 7
v 0 29 6
v 1 29 6
v -1 20 11
v 0 20 11
v 1 20 11
v 2 20 11
v -1 20 10
v 0 20 10
v 1 20 10
v 2 20 10
v 0 21 35
v 1 21 35
v 0 21 33
v 1 21 33
v 0 21 31
v 1 21 31
v 0 21 29
v 1 21 29
v -1 21 23
v 0 21 23
v 1 21 23
v 2 21 23
v -1 21 22
v 0 21 22
v 1 21 22
v 2 21 22
v -1 21 16
v 0 21 16
v 1 21 16
v 2 21 16
v -1 21 15
v 0 21 15
v 1 21 15
v 2 21 15
v 0 22 29
v 1 22 29
v 0 22 25
v 1 22 25
v 0 22 13
v 1 22 13
v -1 22 11
v 0 22 11
v 1 22 11
v 2 22 11
v -1 22 4
v 2 22 4
v -1 22 -34
v 2 22 -34
v -1 22 -35
v 2 22 -35
v 0 31 32
v 1 31 32
v 0 31 31
v 1 31 31
v 0 31 7
v 1 31 7
v 0 31 6
v 1 31 6
v 0 32 31
v 1 32 31
v 0 32 30
v 1 32 30
v 0 32 8
v 1 32 8
v 0 32 7
v 1 32 7
v 0 33 30
v 1 33 30
v 0 33 28
v 1 33 28
v 0 33 10
v 1 33 10
v 0 33 8
v 1 33 8
v 0 34 28
v 1 34 28
v 0 34 26
v 1 34 26
v 0 34 12
v 1 34 12
v 0 34 10
v 1 34 10
v 0 35 26
v 1 35 26
v 0 35 24
v 1 35 24
v 0 35 14
v 1 35 14
v 0 35 12
v 1 35 12
v 0 36 24
v 1 36 24
v 0 36 22
v 1 36 22
v 0 36 16
v 1 36 16
v 0 36 14
v 1 36 14
v 0 37 22
v 1 37 22
v 0 37 16
v 1 37 16

# faces
f 9/5/1 2/5/1 1/5/1
f 10/5/1 2/5/1 9/5/1
f 11/1/1 6/1/1 5/1/1
f 12/1/1 6/1/1 11/1/1
f 13/1/1 8/1/1 7/1/1
f 14/1/1 8/1/1 13/1/1
f 16/5/1 2/5/1 10/5/1
f 17/5/1 16/5/1 15/5/1
f 18/5/1 2/5/1 16/5/1
f 18/5/1 16/5/1 17/5/1
f 18/2/1 3/2/1 2/2/1
f 19/5/1 4/5/1 3/5/1
f 19/2/1 3/2/1 18/2/1
f 20/5/1 4/5/1 19/5/1
f 24/3/1 22/3/1 21/3/1
f 25/3/1 22/3/1 24/3/1
f 28/3/1 24/3/1 23/3/1
f 28/3/1 26/3/1 25/3/1
f 28/3/1 25/3/1 24/3/1
f 29/3/1 26/3/1 28/3/1
f 32/3/1 28/3/1 27/3/1
f 32/3/1 30/3/1 29/3/1
f 32/3/1 29/3/1 28/3/1
f 33/3/1 30/3/1 32/3/1
f 36/3/1 32/3/1 31/3/1
f 36/3/1 34/3/1 33/3/1
f 36/3/1 33/3/1 32/3/1
f 37/3/1 34/3/1 36/3/1
f 40/3/1 36/3/1 35/3/1
f 40/3/1 38/3/1 37/3/1
f 40/3/1 37/3/1 36/3/1
f 41/3/1 38/3/1 40/3/1
f 46/5/1 40/5/1 39/5/1
f 46/5/1 41/5/1 40/5/1
f 46/5/1 42/5/1 41/5/1
f 47/5/1 42/5/1 46/5/1
f 48/5/1 42/5/1 47/5/1
f 49/5/1 42/5/1 48/5/1
f 50/5/1 42/5/1 49/5/1
f 51/5/1 42/5/1 50/5/1
f 53/3/1 44/3/1 43/3/1
f 54/4/1 45/4/1 44/4/1
f 54/3/1 44/3/1 53/3/1
f 55/5/1 46/5/1 45/5/1
f 55/4/1 45/4/1 54/4/1
f 55/5/1 47/5/1 46/5/1
f 56/5/1 47/5/1 55/5/1
f 57/5/1 47/5/1 56/5/1
f 58/5/1 49/5/1 48/5/1
f 59/5/1 49/5/1 58/5/1
f 60/5/1 52/5/1 51/5/1
f 60/5/1 51/5/1 50/5/1
f 61/5/1 52/5/1 60/5/1
f 62/5/1 52/5/1 61/5/1
f 63/5/1 59/5/1 58/5/1
f 63/5/1 61/5/1 60/5/1
f 63/5/1 60/5/1 59/5/1
f 63/5/1 57/5/1 56/5/1
f 63/5/1 58/5/1 57/5/1
f 64/5/1 61/5/1 63/5/1
f 65/5/1 61/5/1 64/5/1
f 66/5/1 61/5/1 65/5/1
f 68/4/1 65/4/1 64/4/1
f 69/4/1 65/4/1 68/4/1
f 72/4/1 68/4/1 67/4/1
f 72/4/1 70/4/1 69/4/1
f 72/4/1 69/4/1 68/4/1
f 73/4/1 70/4/1 72/4/1
f 76/4/1 72/4/1 71/4/1
f 76/4/1 74/4/1 73/4/1
f 76/4/1 73/4/1 72/4/1
f 77/4/1 74/4/1 76/4/1
f 80/4/1 77/4/1 76/4/1
f 80/4/1 78/4/1 77/4/1
f 80/4/1 76/4/1 75/4/1
f 81/4/1 78/4/1 80/4/1
f 84/4/1 81/4/1 80/4/1
f 84/4/1 82/4/1 81/4/1
f 84/4/1 80/4/1 79/4/1
f 85/4/1 82/4/1 84/4/1
f 88/4/1 84/4/1 83/4/1
f 88/4/1 86/4/1 85/4/1
f 88/4/1 85/4/1 84/4/1
f 89/4/1 86/4/1 88/4/1
f 92/4/1 88/4/1 87/4/1
f 92/4/1 90/4/1 89/4/1
f 92/4/1 89/4/1 88/4/1
f 93/4/1 90/4/1 92/4/1
f 95/3/1 92/3/1 91/3/1
f 95/4/1 93/4/1 92/4/1
f 96/4/1 93/4/1 95/4/1
f 97/4/1 93/4/1 96/4/1
f 98/3/1 94/3/1 93/3/1
f 98/4/1 93/4/1 97/4/1
f 99/3/1 95/3/1 91/3/1
f 99/3/1 96/3/1 95/3/1
f 100/3/1 96/3/1 99/3/1
f 101/4/1 97/4/1 96/4/1
f 101/3/1 96/3/1 100/3/1
f 102/4/1 97/4/1 101/4/1
f 103/4/1 97/4/1 102/4/1
f 104/3/1 98/3/1 97/3/1
f 104/4/1 97/4/1 103/4/1
f 105/3/1 94/3/1 98/3/1
f 105/3/1 98/3/1 104/3/1
f 106/3/1 94/3/1 105/3/1
f 107/3/1 101/3/1 100/3/1
f 107/3/1 102/3/1 101/3/1
f 108/3/1 102/3/1 107/3/1
f 109/4/1 103/4/1 102/4/1
f 109/3/1 102/3/1 108/3/1
f 110/4/1 103/4/1 109/4/1
f 111/4/1 103/4/1 110/4/1
f 112/3/1 104/3/1 103/3/1
f 112/4/1 103/4/1 111/4/1
f 112/3/1 105/3/1 104/3/1
f 113/3/1 105/3/1 112/3/1
f 114/3/1 105/3/1 113/3/1
f 115/3/1 110/3/1 109/3/1
f 115/3/1 109/3/1 108/3/1
f 116/3/1 110/3/1 115/3/1
f 117/4/1 111/4/1 110/4/1
f 117/3/1 110/3/1 116/3/1
f 118/4/1 111/4/1 117/4/1
f 119/4/1 111/4/1 118/4/1
f 120/3/1 113/3/1 112/3/1
f 120/4/1 111/4/1 119/4/1
f 120/3/1 112/3/1 111/3/1
f 121/3/1 113/3/1 120/3/1
f 122/3/1 113/3/1 121/3/1
f 123/3/1 118/3/1 117/3/1
f 123/3/1 117/3/1 116/3/1
f 124/3/1 118/3/1 123/3/1
f 125/4/1 119/4/1 118/4/1
f 125/3/1 118/3/1 124/3/1
f 126/4/1 119/4/1 125/4/1
f 127/4/1 119/4/1 126/4/1
f 128/3/1 121/3/1 120/3/1
f 128/4/1 119/4/1 127/4/1
f 128/3/1 120/3/1 119/3/1
f 129/3/1 121/3/1 128/3/1
f 130/3/1 121/3/1 129/3/1
f 131/3/1 126/3/1 125/3/1
f 131/3/1 125/3/1 124/3/1
f 132/3/1 126/3/1 131/3/1
f 133/4/1 127/4/1 126/4/1
f 133/3/1 126/3/1 132/3/1
f 134/4/1 127/4/1 133/4/1
f 135/4/1 127/4/1 134/4/1
f 136/3/1 129/3/1 128/3/1
f 136/4/1 127/4/1 135/4/1
f 136/3/1 128/3/1 127/3/1
f 137/3/1 129/3/1 136/3/1
f 138/3/1 129/3/1 137/3/1
f 139/3/1 134/3/1 133/3/1
f 139/3/1 133/3/1 132/3/1
f 140/3/1 134/3/1 139/3/1
f 141/4/1 135/4/1 134/4/1
f 141/3/1 134/3/1 140/3/1
f 142/3/1 137/3/1 136/3/1
f 142/4/1 135/4/1 141/4/1
f 142/3/1 136/3/1 135/3/1
f 143/3/1 137/3/1 142/3/1
f 144/3/1 137/3/1 143/3/1
f 145/3/1 141/3/1 140/3/1
f 145/3/1 143/3/1 142/3/1
f 145/3/1 142/3/1 141/3/1
f 146/3/1 143/3/1 145/3/1
f 147/3/2 148/3/2 150/3/2
f 150/3/2 148/3/2 151/3/2
f 149/3/2 150/3/2 154/3/2
f 151/3/2 152/3/2 154/3/2
f 150/3/2 151/3/2 154/3/2
f 154/3/2 152/3/2 155/3/2
f 153/3/2 154/3/2 158/3/2
f 155/3/2 156/3/2 158/3/2
f 154/3/2 155/3/2 158/3/2
f 158/3/2 156/3/2 159/3/2
f 157/3/2 158/3/2 162/3/2
f 159/3/2 160/3/2 162/3/2
f 158/3/2 159/3/2 162/3/2
f 162/3/2 160/3/2 163/3/2
f 161/3/2 162/3/2 166/3/2
f 163/3/2 164/3/2 166/3/2
f 162/3/2 163/3/2 166/3/2
f 166/3/2 164/3/2 167/3/2
f 165/5/2 166/5/2 172/5/2
f 166/5/2 167/5/2 172/5/2
f 167/5/2 168/5/2 172/5/2
f 172/5/2 168/5/2 173/5/2
f 173/5/2 168/5/2 174/5/2
f 174/5/2 168/5/2 175/5/2
f 175/5/2 168/5/2 176/5/2
f 176/5/2 168/5/2 177/5/2
f 169/3/2 170/3/2 179/3/2
f 170/4/2 171/4/2 180/4/2
f 179/3/2 170/3/2 180/3/2
f 171/5/2 172/5/2 181/5/2
f 180/4/2 171/4/2 181/4/2
f 172/5/2 173/5/2 181/5/2
f 181/5/2 173/5/2 182/5/2
f 182/5/2 173/5/2 183/5/2
f 174/5/2 175/5/2 184/5/2
f 184/5/2 175/5/2 185/5/2
f 177/5/2 178/5/2 186/5/2
f 176/5/2 177/5/2 186/5/2
f 186/5/2 178/5/2 187/5/2
f 187/5/2 178/5/2 188/5/2
f 184/5/2 185/5/2 189/5/2
f 186/5/2 187/5/2 189/5/2
f 185/5/2 186/5/2 189/5/2
f 182/5/2 183/5/2 189/5/2
f 183/5/2 184/5/2 189/5/2
f 189/5/2 187/5/2 190/5/2
f 190/5/2 187/5/2 191/5/2
f 191/5/2 187/5/2 192/5/2
f 190/4/2 191/4/2 194/4/2
f 194/4/2 191/4/2 195/4/2
f 193/4/2 194/4/2 198/4/2
f 195/4/2 196/4/2 198/4/2
f 194/4/2 195/4/2 198/4/2
f 198/4/2 196/4/2 199/4/2
f 197/4/2 198/4/2 202/4/2
f 199/4/2 200/4/2 202/4/2
f 198/4/2 199/4/2 202/4/2
f 202/4/2 200/4/2 203/4/2
f 202/4/2 203/4/2 206/4/2
f 203/4/2 204/4/2 206/4/2
f 201/4/2 202/4/2 206/4/2
f 206/4/2 204/4/2 207/4/2
f 206/4/2 207/4/2 210/4/2
f 207/4/2 208/4/2 210/4/2
f 205/4/2 206/4/2 210/4/2
f 210/4/2 208/4/2 211/4/2
f 209/4/2 210/4/2 214/4/2
f 211/4/2 212/4/2 214/4/2
f 210/4/2 211/4/2 214/4/2
f 214/4/2 212/4/2 215/4/2
f 213/4/2 214/4/2 218/4/2
f 215/4/2 216/4/2 218/4/2
f 214/4/2 215/4/2 218/4/2
f 218/4/2 216/4/2 219/4/2
f 217/3/2 218/3/2 221/3/2
f 218/4/2 219/4/2 221/4/2
f 221/4/2 219/4/2 222/4/2
f 222/4/2 219/4/2 223/4/2
f 219/3/2 220/3/2 224/3/2
f 223/4/2 219/4/2 224/4/2
f 217/3/2 221/3/2 225/3/2
f 221/3/2 222/3/2 225/3/2
f 225/3/2 222/3/2 226/3/2
f 222/4/2 223/4/2 227/4/2
f 226/3/2 222/3/2 227/3/2
f 227/4/2 223/4/2 228/4/2
f 228/4/2 223/4/2 229/4/2
f 223/3/2 224/3/2 230/3/2
f 229/4/2 223/4/2 230/4/2
f 224/3/2 220/3/2 231/3/2
f 230/3/2 224/3/2 231/3/2
f 231/3/2 220/3/2 232/3/2
f 226/3/2 227/3/2 233/3/2
f 227/3/2 228/3/2 233/3/2
f 233/3/2 228/3/2 234/3/2
f 228/4/2 229/4/2 235/4/2
f 234/3/2 228/3/2 235/3/2
f 235/4/2 229/4/2 236/4/2
f 236/4/2 229/4/2 237/4/2
f 229/3/2 230/3/2 238/3/2
f 237/4/2 229/4/2 238/4/2
f 230/3/2 231/3/2 238/3/2
f 238/3/2 231/3/2 239/3/2
f 239/3/2 231/3/2 240/3/2
f 235/3/2 236/3/2 241/3/2
f 234/3/2 235/3/2 241/3/2
f 241/3/2 236/3/2 242/3/2
f 236/4/2 237/4/2 243/4/2
f 242/3/2 236/3/2 243/3/2
f 243/4/2 237/4/2 244/4/2
f 244/4/2 237/4/2 245/4/2
f 238/3/2 239/3/2 246/3/2
f 245/4/2 237/4/2 246/4/2
f 237/3/2 238/3/2 246/3/2
f 246/3/2 239/3/2 247/3/2
f 247/3/2 239/3/2 248/3/2
f 243/3/2 244/3/2 249/3/2
f 242/3/2 243/3/2 249/3/2
f 249/3/2 244/3/2 250/3/2
f 244/4/2 245/4/2 251/4/2
f 250/3/2 244/3/2 251/3/2
f 251/4/2 245/4/2 252/4/2
f 252/4/2 245/4/2 253/4/2
f 246/3/2 247/3/2 254/3/2
f 253/4/2 245/4/2 254/4/2
f 245/3/2 246/3/2 254/3/2
f 254/3/2 247/3/2 255/3/2
f 255/3/2 247/3/2 256/3/2
f 251/3/2 252/3/2 257/3/2
f 250/3/2 251/3/2 257/3/2
f 257/3/2 252/3/2 258/3/2
f 252/4/2 253/4/2 259/4/2
f 258/3/2 252/3/2 259/3/2
f 259/4/2 253/4/2 260/4/2
f 260/4/2 253/4/2 261/4/2
f 254/3/2 255/3/2 262/3/2
f 261/4/2 253/4/2 262/4/2
f 253/3/2 254/3/2 262/3/2
f 262/3/2 255/3/2 263/3/2
f 263/3/2 255/3/2 264/3/2
f 259/3/2 260/3/2 265/3/2
f 258/3/2 259/3/2 265/3/2
f 265/3/2 260/3/2 266/3/2
f 260/4/2 261/4/2 267/4/2
f 266/3/2 260/3/2 267/3/2
f 262/3/2 263/3/2 268/3/2
f 267/4/2 261/4/2 268/4/2
f 261/3/2 262/3/2 268/3/2
f 268/3/2 263/3/2 269/3/2
f 269/3/2 263/3/2 270/3/2
f 266/3/2 267/3/2 271/3/2
f 268/3/2 269/3/2 271/3/2
f 267/3/2 268/3/2 271/3/2
f 271/3/2 269/3/2 272/3/2
f 273/5/2 274/5/2 281/5/2
f 281/5/2 274/5/2 282/5/2
f 277/1/2 278/1/2 283/1/2
f 283/1/2 278/1/2 284/1/2
f 279/1/2 280/1/2 285/1/2
f 285/1/2 280/1/2 286/1/2
f 282/5/2 274/5/2 288/5/2
f 287/5/2 288/5/2 289/5/2
f 288/5/2 274/5/2 290/5/2
f 289/5/2 288/5/2 290/5/2
f 274/2/2 275/2/2 290/2/2
f 275/5/2 276/5/2 291/5/2
f 290/2/2 275/2/2 291/2/2
f 291/5/2 276/5/2 292/5/2
f 295/3/3 294/3/3 293/3/3
f 296/3/3 294/3/3 295/3/3
f 299/3/3 298/3/3 297/3/3
f 300/3/3 298/3/3 299/3/3
f 305/4/3 302/4/3 301/4/3
f 306/4/3 302/4/3 305/4/3
f 307/3/3 304/3/3 303/3/3
f 308/3/3 304/3/3 307/3/3
f 313/4/3 310/4/3 309/4/3
f 314/4/3 310/4/3 313/4/3
f 315/3/3 312/3/3 311/3/3
f 316/3/3 312/3/3 315/3/3
f 323/5/3 318/5/3 317/5/3
f 324/5/3 318/5/3 323/5/3
f 325/5/3 320/5/3 319/5/3
f 326/5/3 320/5/3 325/5/3
f 327/4/3 322/4/3 321/4/3
f 328/4/3 322/4/3 327/4/3
f 333/4/3 330/4/3 329/4/3
f 334/4/3 330/4/3 333/4/3
f 335/3/3 332/3/3 331/3/3
f 336/3/3 332/3/3 335/3/3
f 339/4/3 338/4/3 337/4/3
f 340/4/3 338/4/3 339/4/3
f 345/4/3 342/4/3 341/4/3
f 346/4/3 342/4/3 345/4/3
f 347/3/3 344/3/3 343/3/3
f 348/3/3 344/3/3 347/3/3
f 351/4/3 350/4/3 349/4/3
f 352/4/3 350/4/3 351/4/3
f 355/3/3 354/3/3 353/3/3
f 356/3/3 354/3/3 355/3/3
f 361/1/3 358/1/3 357/1/3
f 362/1/3 358/1/3 361/1/3
f 363/3/3 360/3/3 359/3/3
f 364/3/3 360/3/3 363/3/3
f 367/1/3 366/1/3 365/1/3
f 368/1/3 366/1/3 367/1/3
f 373/3/3 370/3/3 369/3/3
f 374/3/3 370/3/3 373/3/3
f 375/3/3 372/3/3 371/3/3
f 376/3/3 372/3/3 375/3/3
f 379/3/3 378/3/3 377/3/3
f 380/3/3 378/3/3 379/3/3
f 383/3/3 382/3/3 381/3/3
f 384/3/3 382/3/3 383/3/3
f 387/3/3 386/3/3 385/3/3
f 388/3/3 386/3/3 387/3/3
f 391/1/3 390/1/3 389/1/3
f 392/1/3 390/1/3 391/1/3
f 395/1/3 394/1/3 393/1/3
f 396/1/3 394/1/3 395/1/3
f 401/5/3 398/5/3 397/5/3
f 402/5/3 398/5/3 401/5/3
f 403/5/3 400/5/3 399/5/3
f 404/5/3 400/5/3 403/5/3
f 409/5/3 406/5/3 405/5/3
f 410/5/3 406/5/3 409/5/3
f 411/5/3 408/5/3 407/5/3
f 412/5/3 408/5/3 411/5/3
f 415/5/3 414/5/3 413/5/3
f 416/5/3 414/5/3 415/5/3
f 419/5/3 418/5/3 417/5/3
f 420/5/3 418/5/3 419/5/3
f 421/1/4 422/1/4 423/1/4
f 423/1/4 422/1/4 424/1/4
f 425/1/4 426/1/4 427/1/4
f 427/1/4 426/1/4 428/1/4
f 429/3/4 430/3/4 431/3/4
f 431/3/4 430/3/4 432/3/4
f 433/3/4 434/3/4 435/3/4
f 435/3/4 434/3/4 436/3/4
f 437/3/4 438/3/4 441/3/4
f 441/3/4 438/3/4 442/3/4
f 439/3/4 440/3/4 443/3/4
f 443/3/4 440/3/4 444/3/4
f 445/1/4 446/1/4 449/1/4
f 449/1/4 446/1/4 450/1/4
f 447/3/4 448/3/4 451/3/4
f 451/3/4 448/3/4 452/3/4
f 453/1/4 454/1/4 455/1/4
f 455/1/4 454/1/4 456/1/4
f 457/3/4 458/3/4 461/3/4
f 461/3/4 458/3/4 462/3/4
f 459/3/4 460/3/4 463/3/4
f 463/3/4 460/3/4 464/3/4
f 465/4/4 466/4/4 467/4/4
f 467/4/4 466/4/4 468/4/4
f 469/4/4 470/4/4 473/4/4
f 473/4/4 470/4/4 474/4/4
f 471/3/4 472/3/4 475/3/4
f 475/3/4 472/3/4 476/3/4
f 477/4/4 478/4/4 479/4/4
f 479/4/4 478/4/4 480/4/4
f 481/4/4 482/4/4 485/4/4
f 485/4/4 482/4/4 486/4/4
f 483/3/4 484/3/4 487/3/4
f 487/3/4 484/3/4 488/3/4
f 489/4/4 490/4/4 491/4/4
f 491/4/4 490/4/4 492/4/4
f 493/4/4 494/4/4 497/4/4
f 497/4/4 494/4/4 498/4/4
f 495/3/4 496/3/4 499/3/4
f 499/3/4 496/3/4 500/3/4
f 501/4/4 502/4/4 505/4/4
f 505/4/4 502/4/4 506/4/4
f 503/3/4 504/3/4 507/3/4
f 507/3/4 504/3/4 508/3/4
f 509/3/4 510/3/4 511/3/4
f 511/3/4 510/3/4 512/3/4
f 513/5/4 514/5/4 515/5/4
f 515/5/4 514/5/4 516/5/4
f 519/3/5 518/3/5 517/3/5
f 520/3/5 518/3/5 519/3/5
f 523/3/5 522/3/5 521/3/5
f 524/3/5 522/3/5 523/3/5
f 527/3/5 526/3/5 525/3/5
f 528/3/5 526/3/5 527/3/5
f 531/3/5 530/3/5 529/3/5
f 532/3/5 530/3/5 531/3/5
f 535/3/5 534/3/5 533/3/5
f 536/3/5 534/3/5 535/3/5
f 539/3/5 538/3/5 537/3/5
f 540/3/5 538/3/5 539/3/5
f 543/3/5 542/3/5 541/3/5
f 544/3/5 542/3/5 543/3/5
f 547/3/5 546/3/5 545/3/5
f 548/3/5 546/3/5 547/3/5
f 551/3/5 550/3/5 549/3/5
f 552/3/5 550/3/5 551/3/5
f 555/5/5 554/5/5 553/5/5
f 556/5/5 554/5/5 555/5/5
f 560/5/5 558/5/5 557/5/5
f 561/5/5 558/5/5 560/5/5
f 563/5/5 561/5/5 560/5/5
f 563/5/5 562/5/5 561/5/5
f 563/5/5 560/5/5 559/5/5
f 564/5/5 562/5/5 563/5/5
f 565/2/5 564/2/5 563/2/5
f 566/2/5 564/2/5 565/2/5
f 567/5/5 566/5/5 565/5/5
f 568/5/5 566/5/5 567/5/5
f 571/3/5 570/3/5 569/3/5
f 572/3/5 570/3/5 571/3/5
f 573/4/5 572/4/5 571/4/5
f 574/4/5 572/4/5 573/4/5
f 575/5/5 574/5/5 573/5/5
f 576/5/5 574/5/5 575/5/5
f 581/1/5 578/1/5 577/1/5
f 582/1/5 578/1/5 581/1/5
f 583/1/5 580/1/5 579/1/5
f 584/1/5 580/1/5 583/1/5
f 589/1/5 586/1/5 585/1/5
f 590/1/5 586/1/5 589/1/5
f 591/1/5 588/1/5 587/1/5
f 592/1/5 588/1/5 591/1/5
f 597/5/5 594/5/5 593/5/5
f 598/5/5 594/5/5 597/5/5
f 599/5/5 596/5/5 595/5/5
f 600/5/5 596/5/5 599/5/5
f 603/4/5 602/4/5 601/4/5
f 604/4/5 602/4/5 603/4/5
f 607/4/5 606/4/5 605/4/5
f 608/4/5 606/4/5 607/4/5
f 611/4/5 610/4/5 609/4/5
f 612/4/5 610/4/5 611/4/5
f 615/4/5 614/4/5 613/4/5
f 616/4/5 614/4/5 615/4/5
f 619/4/5 618/4/5 617/4/5
f 620/4/5 618/4/5 619/4/5
f 623/4/5 622/4/5 621/4/5
f 624/4/5 622/4/5 623/4/5
f 627/4/5 626/4/5 625/4/5
f 628/4/5 626/4/5 627/4/5
f 631/4/5 630/4/5 629/4/5
f 632/4/5 630/4/5 631/4/5
f 635/4/5 634/4/5 633/4/5
f 636/4/5 634/4/5 635/4/5
f 639/4/5 638/4/5 637/4/5
f 640/4/5 638/4/5 639/4/5
f 643/4/5 642/4/5 641/4/5
f 644/4/5 642/4/5 643/4/5
f 647/4/5 646/4/5 645/4/5
f 648/4/5 646/4/5 647/4/5
f 651/3/5 650/3/5 649/3/5
f 652/3/5 650/3/5 651/3/5
f 655/3/5 654/3/5 653/3/5
f 656/3/5 654/3/5 655/3/5
f 657/5/6 658/5/6 661/5/6
f 661/5/6 658/5/6 662/5/6
f 659/5/6 660/5/6 663/5/6
f 663/5/6 660/5/6 664/5/6
f 665/3/6 666/3/6 667/3/6
f 667/3/6 666/3/6 668/3/6
f 667/4/6 668/4/6 669/4/6
f 669/4/6 668/4/6 670/4/6
f 669/5/6 670/5/6 671/5/6
f 671/5/6 670/5/6 672/5/6
f 673/1/6 674/1/6 677/1/6
f 677/1/6 674/1/6 678/1/6
f 675/1/6 676/1/6 679/1/6
f 679/1/6 676/1/6 680/1/6
f 681/1/6 682/1/6 685/1/6
f 685/1/6 682/1/6 686/1/6
f 683/1/6 684/1/6 687/1/6
f 687/1/6 684/1/6 688/1/6
f 689/5/6 690/5/6 691/5/6
f 691/5/6 690/5/6 692/5/6
f 693/5/6 694/5/6 696/5/6
f 696/5/6 694/5/6 697/5/6
f 696/5/6 697/5/6 699/5/6
f 697/5/6 698/5/6 699/5/6
f 695/5/6 696/5/6 699/5/6
f 699/5/6 698/5/6 700/5/6
f 699/2/6 700/2/6 701/2/6
f 701/2/6 700/2/6 702/2/6
f 701/5/6 702/5/6 703/5/6
f 703/5/6 702/5/6 704/5/6
f 705/3/6 706/3/6 707/3/6
f 707/3/6 706/3/6 708/3/6
f 709/3/6 710/3/6 711/3/6
f 711/3/6 710/3/6 712/3/6
f 713/3/6 714/3/6 715/3/6
f 715/3/6 714/3/6 716/3/6
f 717/3/6 718/3/6 719/3/6
f 719/3/6 718/3/6 720/3/6
f 721/3/6 722/3/6 723/3/6
f 723/3/6 722/3/6 724/3/6
f 725/3/6 726/3/6 727/3/6
f 727/3/6 726/3/6 728/3/6
f 729/3/6 730/3/6 731/3/6
f 731/3/6 730/3/6 732/3/6
f 733/3/6 734/3/6 735/3/6
f 735/3/6 734/3/6 736/3/6
f 737/3/6 738/3/6 739/3/6
f 739/3/6 738/3/6 740/3/6
f 741/3/6 742/3/6 743/3/6
f 743/3/6 742/3/6 744/3/6
f 745/3/6 746/3/6 747/3/6
f 747/3/6 746/3/6 748/3/6
f 749/3/6 750/3/6 751/3/6
f 751/3/6 750/3/6 752/3/6
f 753/3/6 754/3/6 755/3/6
f 755/3/6 754/3/6 756/3/6
