# MagicaVoxel @ Ephtracy

# material
mtllib bigspear.mtl
usemtl palette

# normals
vn -1 0 0
vn 1 0 0
vn 0 0 1
vn 0 0 -1
vn 0 -1 0
vn 0 1 0

# texcoords
vt 0.185547 0.5
vt 0.865234 0.5
vt 0.869141 0.5
vt 0.958984 0.5
vt 0.962891 0.5
vt 0.966797 0.5

# verts
v -2 0 1
v -2 0 -2
v -2 2 1
v -2 2 -2
v -1 2 -0
v -1 2 -1
v -1 3 -0
v -1 3 -1
v -1 20 6
v -1 20 4
v -1 20 -5
v -1 20 -7
v -1 21 4
v -1 21 2
v -1 21 -3
v -1 21 -5
v -1 22 6
v -1 22 5
v -1 22 2
v -1 22 1
v -1 22 -2
v -1 22 -3
v -1 22 -6
v -1 22 -7
v -1 23 1
v -1 23 -0
v -1 23 -1
v -1 23 -2
v -1 24 5
v -1 24 3
v -1 24 -4
v -1 24 -6
v -1 26 5
v -1 26 3
v -1 26 -0
v -1 26 -1
v -1 26 -4
v -1 26 -6
v -1 27 1
v -1 27 -2
v -1 28 6
v -1 28 5
v -1 28 3
v -1 28 2
v -1 28 1
v -1 28 -2
v -1 28 -3
v -1 28 -4
v -1 28 -6
v -1 28 -7
v -1 29 4
v -1 29 3
v -1 29 -4
v -1 29 -5
v -1 30 5
v -1 30 4
v -1 30 -5
v -1 30 -6
v -1 31 6
v -1 31 5
v -1 31 -6
v -1 31 -7
v -1 32 1
v -1 32 -0
v -1 32 -1
v -1 32 -2
v -1 37 -0
v -1 37 -1
v 0 2 -0
v 0 2 -1
v 0 3 -0
v 0 3 -1
v 0 20 6
v 0 20 4
v 0 20 -5
v 0 20 -7
v 0 21 4
v 0 21 2
v 0 21 -3
v 0 21 -5
v 0 22 6
v 0 22 5
v 0 22 2
v 0 22 1
v 0 22 -2
v 0 22 -3
v 0 22 -6
v 0 22 -7
v 0 23 1
v 0 23 -0
v 0 23 -1
v 0 23 -2
v 0 24 5
v 0 24 3
v 0 24 -4
v 0 24 -6
v 0 26 5
v 0 26 3
v 0 26 -0
v 0 26 -1
v 0 26 -4
v 0 26 -6
v 0 27 1
v 0 27 -2
v 0 28 6
v 0 28 5
v 0 28 3
v 0 28 2
v 0 28 1
v 0 28 -2
v 0 28 -3
v 0 28 -4
v 0 28 -6
v 0 28 -7
v 0 29 4
v 0 29 3
v 0 29 -4
v 0 29 -5
v 0 30 5
v 0 30 4
v 0 30 -5
v 0 30 -6
v 0 31 6
v 0 31 5
v 0 31 -6
v 0 31 -7
v 0 32 1
v 0 32 -0
v 0 32 -1
v 0 32 -2
v 0 37 -0
v 0 37 -1
v 1 0 1
v 1 0 -2
v 1 2 1
v 1 2 -2
v -1 20 6
v -1 22 6
v -1 28 6
v -1 31 6
v 0 20 6
v 0 22 6
v 0 28 6
v 0 31 6
v -1 22 5
v -1 24 5
v -1 26 5
v -1 28 5
v 0 22 5
v 0 24 5
v 0 26 5
v 0 28 5
v -1 24 3
v -1 26 3
v 0 24 3
v 0 26 3
v -2 0 1
v -2 2 1
v -1 28 1
v -1 32 1
v 0 28 1
v 0 32 1
v 1 0 1
v 1 2 1
v -1 2 -0
v -1 3 -0
v -1 23 -0
v -1 32 -0
v -1 37 -0
v 0 2 -0
v 0 3 -0
v 0 23 -0
v 0 32 -0
v 0 37 -0
v -1 22 -2
v -1 23 -2
v 0 22 -2
v 0 23 -2
v -1 21 -3
v -1 22 -3
v 0 21 -3
v 0 22 -3
v -1 28 -4
v -1 29 -4
v 0 28 -4
v 0 29 -4
v -1 20 -5
v -1 21 -5
v -1 29 -5
v -1 30 -5
v 0 20 -5
v 0 21 -5
v 0 29 -5
v 0 30 -5
v -1 30 -6
v -1 31 -6
v 0 30 -6
v 0 31 -6
v -1 30 5
v -1 31 5
v 0 30 5
v 0 31 5
v -1 20 4
v -1 21 4
v -1 29 4
v -1 30 4
v 0 20 4
v 0 21 4
v 0 29 4
v 0 30 4
v -1 28 3
v -1 29 3
v 0 28 3
v 0 29 3
v -1 21 2
v -1 22 2
v 0 21 2
v 0 22 2
v -1 22 1
v -1 23 1
v 0 22 1
v 0 23 1
v -1 2 -1
v -1 3 -1
v -1 23 -1
v -1 32 -1
v -1 37 -1
v 0 2 -1
v 0 3 -1
v 0 23 -1
v 0 32 -1
v 0 37 -1
v -2 0 -2
v -2 2 -2
v -1 28 -2
v -1 32 -2
v 0 28 -2
v 0 32 -2
v 1 0 -2
v 1 2 -2
v -1 24 -4
v -1 26 -4
v 0 24 -4
v 0 26 -4
v -1 22 -6
v -1 24 -6
v -1 26 -6
v -1 28 -6
v 0 22 -6
v 0 24 -6
v 0 26 -6
v 0 28 -6
v -1 20 -7
v -1 22 -7
v -1 28 -7
v -1 31 -7
v 0 20 -7
v 0 22 -7
v 0 28 -7
v 0 31 -7
v -2 0 1
v 1 0 1
v -2 0 -2
v 1 0 -2
v -1 20 6
v 0 20 6
v -1 20 4
v 0 20 4
v -1 20 -5
v 0 20 -5
v -1 20 -7
v 0 20 -7
v -1 21 4
v 0 21 4
v -1 21 2
v 0 21 2
v -1 21 -3
v 0 21 -3
v -1 21 -5
v 0 21 -5
v -1 22 2
v 0 22 2
v -1 22 1
v 0 22 1
v -1 22 -2
v 0 22 -2
v -1 22 -3
v 0 22 -3
v -1 23 1
v 0 23 1
v -1 23 -0
v 0 23 -0
v -1 23 -1
v 0 23 -1
v -1 23 -2
v 0 23 -2
v -1 26 5
v 0 26 5
v -1 26 3
v 0 26 3
v -1 26 -4
v 0 26 -4
v -1 26 -6
v 0 26 -6
v -1 28 6
v 0 28 6
v -1 28 5
v 0 28 5
v -1 28 -6
v 0 28 -6
v -1 28 -7
v 0 28 -7
v -2 2 1
v 1 2 1
v -1 2 -0
v 0 2 -0
v -1 2 -1
v 0 2 -1
v -2 2 -2
v 1 2 -2
v -1 22 6
v 0 22 6
v -1 22 5
v 0 22 5
v -1 22 -6
v 0 22 -6
v -1 22 -7
v 0 22 -7
v -1 24 5
v 0 24 5
v -1 24 3
v 0 24 3
v -1 24 -4
v 0 24 -4
v -1 24 -6
v 0 24 -6
v -1 28 3
v 0 28 3
v -1 28 2
v 0 28 2
v -1 28 1
v 0 28 1
v -1 28 -2
v 0 28 -2
v -1 28 -3
v 0 28 -3
v -1 28 -4
v 0 28 -4
v -1 29 4
v 0 29 4
v -1 29 3
v 0 29 3
v -1 29 -4
v 0 29 -4
v -1 29 -5
v 0 29 -5
v -1 30 5
v 0 30 5
v -1 30 4
v 0 30 4
v -1 30 -5
v 0 30 -5
v -1 30 -6
v 0 30 -6
v -1 31 6
v 0 31 6
v -1 31 5
v 0 31 5
v -1 31 -6
v 0 31 -6
v -1 31 -7
v 0 31 -7
v -1 32 1
v 0 32 1
v -1 32 -0
v 0 32 -0
v -1 32 -1
v 0 32 -1
v -1 32 -2
v 0 32 -2
v -1 37 -0
v 0 37 -0
v -1 37 -1
v 0 37 -1

# faces
f 3/1/1 2/1/1 1/1/1
f 4/1/1 2/1/1 3/1/1
f 7/2/1 6/2/1 5/2/1
f 8/2/1 6/2/1 7/2/1
f 13/6/1 10/6/1 9/6/1
f 16/6/1 12/6/1 11/6/1
f 17/6/1 14/6/1 13/6/1
f 17/6/1 13/6/1 9/6/1
f 18/6/1 14/6/1 17/6/1
f 19/6/1 14/6/1 18/6/1
f 22/6/1 16/6/1 15/6/1
f 23/6/1 12/6/1 16/6/1
f 23/6/1 16/6/1 22/6/1
f 24/6/1 12/6/1 23/6/1
f 25/5/1 20/5/1 19/5/1
f 26/3/1 8/3/1 7/3/1
f 27/3/1 8/3/1 26/3/1
f 28/5/1 22/5/1 21/5/1
f 29/6/1 19/6/1 18/6/1
f 30/6/1 19/6/1 29/6/1
f 31/6/1 23/6/1 22/6/1
f 32/6/1 23/6/1 31/6/1
f 34/6/1 19/6/1 30/6/1
f 35/3/1 27/3/1 26/3/1
f 35/4/1 26/4/1 25/4/1
f 36/4/1 28/4/1 27/4/1
f 36/3/1 27/3/1 35/3/1
f 37/6/1 31/6/1 22/6/1
f 39/5/1 25/5/1 19/5/1
f 39/4/1 35/4/1 25/4/1
f 39/4/1 36/4/1 35/4/1
f 40/4/1 28/4/1 36/4/1
f 40/4/1 36/4/1 39/4/1
f 40/5/1 22/5/1 28/5/1
f 42/6/1 34/6/1 33/6/1
f 43/6/1 19/6/1 34/6/1
f 43/6/1 34/6/1 42/6/1
f 44/5/1 39/5/1 19/5/1
f 44/6/1 19/6/1 43/6/1
f 44/5/1 40/5/1 39/5/1
f 45/5/1 40/5/1 44/5/1
f 46/5/1 22/5/1 40/5/1
f 46/5/1 40/5/1 45/5/1
f 47/6/1 38/6/1 37/6/1
f 47/5/1 22/5/1 46/5/1
f 47/6/1 37/6/1 22/6/1
f 48/6/1 38/6/1 47/6/1
f 49/6/1 38/6/1 48/6/1
f 51/6/1 43/6/1 42/6/1
f 51/6/1 42/6/1 41/6/1
f 52/6/1 43/6/1 51/6/1
f 53/6/1 50/6/1 49/6/1
f 53/6/1 49/6/1 48/6/1
f 54/6/1 50/6/1 53/6/1
f 55/6/1 51/6/1 41/6/1
f 56/6/1 51/6/1 55/6/1
f 57/6/1 50/6/1 54/6/1
f 58/6/1 50/6/1 57/6/1
f 59/6/1 55/6/1 41/6/1
f 60/6/1 55/6/1 59/6/1
f 61/6/1 50/6/1 58/6/1
f 62/6/1 50/6/1 61/6/1
f 63/6/1 46/6/1 45/6/1
f 64/6/1 46/6/1 63/6/1
f 65/6/1 46/6/1 64/6/1
f 66/6/1 46/6/1 65/6/1
f 67/6/1 65/6/1 64/6/1
f 68/6/1 65/6/1 67/6/1
f 69/2/2 70/2/2 71/2/2
f 71/2/2 70/2/2 72/2/2
f 73/6/2 74/6/2 77/6/2
f 75/6/2 76/6/2 80/6/2
f 77/6/2 78/6/2 81/6/2
f 73/6/2 77/6/2 81/6/2
f 81/6/2 78/6/2 82/6/2
f 82/6/2 78/6/2 83/6/2
f 79/6/2 80/6/2 86/6/2
f 80/6/2 76/6/2 87/6/2
f 86/6/2 80/6/2 87/6/2
f 87/6/2 76/6/2 88/6/2
f 83/5/2 84/5/2 89/5/2
f 71/3/2 72/3/2 90/3/2
f 90/3/2 72/3/2 91/3/2
f 85/5/2 86/5/2 92/5/2
f 82/6/2 83/6/2 93/6/2
f 93/6/2 83/6/2 94/6/2
f 86/6/2 87/6/2 95/6/2
f 95/6/2 87/6/2 96/6/2
f 94/6/2 83/6/2 98/6/2
f 90/3/2 91/3/2 99/3/2
f 89/4/2 90/4/2 99/4/2
f 91/4/2 92/4/2 100/4/2
f 99/3/2 91/3/2 100/3/2
f 86/6/2 95/6/2 101/6/2
f 83/5/2 89/5/2 103/5/2
f 89/4/2 99/4/2 103/4/2
f 99/4/2 100/4/2 103/4/2
f 100/4/2 92/4/2 104/4/2
f 103/4/2 100/4/2 104/4/2
f 92/5/2 86/5/2 104/5/2
f 97/6/2 98/6/2 106/6/2
f 98/6/2 83/6/2 107/6/2
f 106/6/2 98/6/2 107/6/2
f 83/5/2 103/5/2 108/5/2
f 107/6/2 83/6/2 108/6/2
f 103/5/2 104/5/2 108/5/2
f 108/5/2 104/5/2 109/5/2
f 104/5/2 86/5/2 110/5/2
f 109/5/2 104/5/2 110/5/2
f 101/6/2 102/6/2 111/6/2
f 110/5/2 86/5/2 111/5/2
f 86/6/2 101/6/2 111/6/2
f 111/6/2 102/6/2 112/6/2
f 112/6/2 102/6/2 113/6/2
f 106/6/2 107/6/2 115/6/2
f 105/6/2 106/6/2 115/6/2
f 115/6/2 107/6/2 116/6/2
f 113/6/2 114/6/2 117/6/2
f 112/6/2 113/6/2 117/6/2
f 117/6/2 114/6/2 118/6/2
f 105/6/2 115/6/2 119/6/2
f 119/6/2 115/6/2 120/6/2
f 118/6/2 114/6/2 121/6/2
f 121/6/2 114/6/2 122/6/2
f 105/6/2 119/6/2 123/6/2
f 123/6/2 119/6/2 124/6/2
f 122/6/2 114/6/2 125/6/2
f 125/6/2 114/6/2 126/6/2
f 109/6/2 110/6/2 127/6/2
f 127/6/2 110/6/2 128/6/2
f 128/6/2 110/6/2 129/6/2
f 129/6/2 110/6/2 130/6/2
f 128/6/2 129/6/2 131/6/2
f 131/6/2 129/6/2 132/6/2
f 133/1/2 134/1/2 135/1/2
f 135/1/2 134/1/2 136/1/2
f 141/6/3 138/6/3 137/6/3
f 142/6/3 138/6/3 141/6/3
f 143/6/3 140/6/3 139/6/3
f 144/6/3 140/6/3 143/6/3
f 149/6/3 146/6/3 145/6/3
f 150/6/3 146/6/3 149/6/3
f 151/6/3 148/6/3 147/6/3
f 152/6/3 148/6/3 151/6/3
f 155/6/3 154/6/3 153/6/3
f 156/6/3 154/6/3 155/6/3
f 161/6/3 160/6/3 159/6/3
f 162/6/3 160/6/3 161/6/3
f 163/1/3 158/1/3 157/1/3
f 164/1/3 158/1/3 163/1/3
f 170/2/3 166/2/3 165/2/3
f 171/3/3 167/3/3 166/3/3
f 171/2/3 166/2/3 170/2/3
f 172/3/3 167/3/3 171/3/3
f 173/6/3 169/6/3 168/6/3
f 174/6/3 169/6/3 173/6/3
f 177/5/3 176/5/3 175/5/3
f 178/5/3 176/5/3 177/5/3
f 181/6/3 180/6/3 179/6/3
f 182/6/3 180/6/3 181/6/3
f 185/6/3 184/6/3 183/6/3
f 186/6/3 184/6/3 185/6/3
f 191/6/3 188/6/3 187/6/3
f 192/6/3 188/6/3 191/6/3
f 193/6/3 190/6/3 189/6/3
f 194/6/3 190/6/3 193/6/3
f 197/6/3 196/6/3 195/6/3
f 198/6/3 196/6/3 197/6/3
f 199/6/4 200/6/4 201/6/4
f 201/6/4 200/6/4 202/6/4
f 203/6/4 204/6/4 207/6/4
f 207/6/4 204/6/4 208/6/4
f 205/6/4 206/6/4 209/6/4
f 209/6/4 206/6/4 210/6/4
f 211/6/4 212/6/4 213/6/4
f 213/6/4 212/6/4 214/6/4
f 215/6/4 216/6/4 217/6/4
f 217/6/4 216/6/4 218/6/4
f 219/5/4 220/5/4 221/5/4
f 221/5/4 220/5/4 222/5/4
f 223/2/4 224/2/4 228/2/4
f 224/3/4 225/3/4 229/3/4
f 228/2/4 224/2/4 229/2/4
f 229/3/4 225/3/4 230/3/4
f 226/6/4 227/6/4 231/6/4
f 231/6/4 227/6/4 232/6/4
f 235/6/4 236/6/4 237/6/4
f 237/6/4 236/6/4 238/6/4
f 233/1/4 234/1/4 239/1/4
f 239/1/4 234/1/4 240/1/4
f 241/6/4 242/6/4 243/6/4
f 243/6/4 242/6/4 244/6/4
f 245/6/4 246/6/4 249/6/4
f 249/6/4 246/6/4 250/6/4
f 247/6/4 248/6/4 251/6/4
f 251/6/4 248/6/4 252/6/4
f 253/6/4 254/6/4 257/6/4
f 257/6/4 254/6/4 258/6/4
f 255/6/4 256/6/4 259/6/4
f 259/6/4 256/6/4 260/6/4
f 263/1/5 262/1/5 261/1/5
f 264/1/5 262/1/5 263/1/5
f 267/6/5 266/6/5 265/6/5
f 268/6/5 266/6/5 267/6/5
f 271/6/5 270/6/5 269/6/5
f 272/6/5 270/6/5 271/6/5
f 275/6/5 274/6/5 273/6/5
f 276/6/5 274/6/5 275/6/5
f 279/6/5 278/6/5 277/6/5
f 280/6/5 278/6/5 279/6/5
f 283/5/5 282/5/5 281/5/5
f 284/5/5 282/5/5 283/5/5
f 287/5/5 286/5/5 285/5/5
f 288/5/5 286/5/5 287/5/5
f 291/4/5 290/4/5 289/4/5
f 292/4/5 290/4/5 291/4/5
f 295/4/5 294/4/5 293/4/5
f 296/4/5 294/4/5 295/4/5
f 299/6/5 298/6/5 297/6/5
f 300/6/5 298/6/5 299/6/5
f 303/6/5 302/6/5 301/6/5
f 304/6/5 302/6/5 303/6/5
f 307/6/5 306/6/5 305/6/5
f 308/6/5 306/6/5 307/6/5
f 311/6/5 310/6/5 309/6/5
f 312/6/5 310/6/5 311/6/5
f 313/1/6 314/1/6 315/1/6
f 315/1/6 314/1/6 316/1/6
f 313/1/6 315/1/6 317/1/6
f 316/1/6 314/1/6 318/1/6
f 313/1/6 317/1/6 319/1/6
f 317/1/6 318/1/6 319/1/6
f 318/1/6 314/1/6 320/1/6
f 319/1/6 318/1/6 320/1/6
f 321/6/6 322/6/6 323/6/6
f 323/6/6 322/6/6 324/6/6
f 325/6/6 326/6/6 327/6/6
f 327/6/6 326/6/6 328/6/6
f 329/6/6 330/6/6 331/6/6
f 331/6/6 330/6/6 332/6/6
f 333/6/6 334/6/6 335/6/6
f 335/6/6 334/6/6 336/6/6
f 337/6/6 338/6/6 339/6/6
f 339/6/6 338/6/6 340/6/6
f 339/5/6 340/5/6 341/5/6
f 341/5/6 340/5/6 342/5/6
f 343/5/6 344/5/6 345/5/6
f 345/5/6 344/5/6 346/5/6
f 345/6/6 346/6/6 347/6/6
f 347/6/6 346/6/6 348/6/6
f 349/6/6 350/6/6 351/6/6
f 351/6/6 350/6/6 352/6/6
f 353/6/6 354/6/6 355/6/6
f 355/6/6 354/6/6 356/6/6
f 357/6/6 358/6/6 359/6/6
f 359/6/6 358/6/6 360/6/6
f 361/6/6 362/6/6 363/6/6
f 363/6/6 362/6/6 364/6/6
f 365/6/6 366/6/6 367/6/6
f 367/6/6 366/6/6 368/6/6
f 369/6/6 370/6/6 371/6/6
f 371/6/6 370/6/6 372/6/6
f 373/6/6 374/6/6 375/6/6
f 375/6/6 374/6/6 376/6/6
f 377/6/6 378/6/6 379/6/6
f 379/6/6 378/6/6 380/6/6
f 381/6/6 382/6/6 383/6/6
f 383/6/6 382/6/6 384/6/6
