# MagicaVoxel @ ephtracy

# material
mtllib evil feet.mtl
usemtl palette

# normals
vn -1 0 0
vn 1 0 0
vn 0 0 1
vn 0 0 -1
vn 0 -1 0
vn 0 1 0

# texcoords
vt 0.810547 0.5
vt 0.833984 0.5
vt 0.943359 0.5
vt 0.947266 0.5
vt 0.958984 0.5

# verts
v -2 0 3
v -2 0 2
v -2 0 1
v -2 0 -0
v -2 0 -3
v -2 1 3
v -2 1 2
v -2 1 1
v -2 1 -0
v -2 1 -3
v -1 1 -1
v -1 1 -3
v -1 4 -2
v -1 4 -3
v -1 5 -1
v -1 5 -2
v -1 10 -1
v -1 10 -3
v 0 0 3
v 0 0 2
v 0 0 1
v 0 0 -0
v 0 1 3
v 0 1 2
v 0 1 1
v 0 1 -0
v 2 0 3
v 2 0 2
v 2 0 1
v 2 0 -0
v 2 1 3
v 2 1 2
v 2 1 1
v 2 1 -0
v -1 0 3
v -1 0 2
v -1 0 1
v -1 0 -0
v -1 1 3
v -1 1 2
v -1 1 1
v -1 1 -0
v 1 0 3
v 1 0 2
v 1 0 1
v 1 0 -0
v 1 1 3
v 1 1 2
v 1 1 1
v 1 1 -0
v 2 1 -1
v 2 1 -3
v 2 4 -1
v 2 4 -2
v 2 5 -2
v 2 5 -3
v 2 10 -1
v 2 10 -3
v 3 0 3
v 3 0 2
v 3 0 1
v 3 0 -0
v 3 0 -3
v 3 1 3
v 3 1 2
v 3 1 1
v 3 1 -0
v 3 1 -3
v -2 0 3
v -2 1 3
v -1 0 3
v -1 1 3
v 0 0 3
v 0 1 3
v 1 0 3
v 1 1 3
v 2 0 3
v 2 1 3
v 3 0 3
v 3 1 3
v -1 0 -0
v -1 1 -0
v 0 0 -0
v 0 1 -0
v 1 0 -0
v 1 1 -0
v 2 0 -0
v 2 1 -0
v -1 1 -1
v -1 5 -1
v -1 10 -1
v 0 3 -1
v 0 5 -1
v 1 3 -1
v 1 4 -1
v 2 1 -1
v 2 4 -1
v 2 10 -1
v -2 0 -3
v -2 1 -3
v -1 1 -3
v -1 4 -3
v -1 10 -3
v 0 3 -3
v 0 4 -3
v 1 3 -3
v 1 5 -3
v 2 1 -3
v 2 5 -3
v 2 10 -3
v 3 0 -3
v 3 1 -3
v -2 0 3
v -1 0 3
v 0 0 3
v 1 0 3
v 2 0 3
v 3 0 3
v -2 0 2
v -1 0 2
v 0 0 2
v 1 0 2
v 2 0 2
v 3 0 2
v -2 0 1
v -1 0 1
v 0 0 1
v 1 0 1
v 2 0 1
v 3 0 1
v -2 0 -0
v -1 0 -0
v 0 0 -0
v 1 0 -0
v 2 0 -0
v 3 0 -0
v -2 0 -3
v 3 0 -3
v -2 1 3
v -1 1 3
v 0 1 3
v 1 1 3
v 2 1 3
v 3 1 3
v -2 1 2
v -1 1 2
v 0 1 2
v 1 1 2
v 2 1 2
v 3 1 2
v -2 1 1
v -1 1 1
v 0 1 1
v 1 1 1
v 2 1 1
v 3 1 1
v -2 1 -0
v -1 1 -0
v 0 1 -0
v 1 1 -0
v 2 1 -0
v 3 1 -0
v -1 1 -1
v 2 1 -1
v -2 1 -3
v -1 1 -3
v 2 1 -3
v 3 1 -3
v -1 10 -1
v 2 10 -1
v -1 10 -3
v 2 10 -3

# faces
f 6/5/1 2/5/1 1/5/1
f 7/4/1 3/4/1 2/4/1
f 7/5/1 2/5/1 6/5/1
f 8/3/1 4/3/1 3/3/1
f 8/4/1 3/4/1 7/4/1
f 9/4/1 5/4/1 4/4/1
f 9/3/1 4/3/1 8/3/1
f 10/4/1 5/4/1 9/4/1
f 13/2/1 12/2/1 11/2/1
f 14/2/1 12/2/1 13/2/1
f 15/2/1 13/2/1 11/2/1
f 16/1/1 14/1/1 13/1/1
f 16/2/1 13/2/1 15/2/1
f 17/1/1 16/1/1 15/1/1
f 18/1/1 14/1/1 16/1/1
f 18/1/1 16/1/1 17/1/1
f 23/5/1 20/5/1 19/5/1
f 24/4/1 21/4/1 20/4/1
f 24/5/1 20/5/1 23/5/1
f 25/3/1 22/3/1 21/3/1
f 25/4/1 21/4/1 24/4/1
f 26/3/1 22/3/1 25/3/1
f 31/5/1 28/5/1 27/5/1
f 32/4/1 29/4/1 28/4/1
f 32/5/1 28/5/1 31/5/1
f 33/3/1 30/3/1 29/3/1
f 33/4/1 29/4/1 32/4/1
f 34/3/1 30/3/1 33/3/1
f 35/5/2 36/5/2 39/5/2
f 36/4/2 37/4/2 40/4/2
f 39/5/2 36/5/2 40/5/2
f 37/3/2 38/3/2 41/3/2
f 40/4/2 37/4/2 41/4/2
f 41/3/2 38/3/2 42/3/2
f 43/5/2 44/5/2 47/5/2
f 44/4/2 45/4/2 48/4/2
f 47/5/2 44/5/2 48/5/2
f 45/3/2 46/3/2 49/3/2
f 48/4/2 45/4/2 49/4/2
f 49/3/2 46/3/2 50/3/2
f 51/2/2 52/2/2 53/2/2
f 53/2/2 52/2/2 54/2/2
f 53/1/2 54/1/2 55/1/2
f 54/2/2 52/2/2 55/2/2
f 55/2/2 52/2/2 56/2/2
f 53/1/2 55/1/2 57/1/2
f 55/1/2 56/1/2 57/1/2
f 57/1/2 56/1/2 58/1/2
f 59/5/2 60/5/2 64/5/2
f 60/4/2 61/4/2 65/4/2
f 64/5/2 60/5/2 65/5/2
f 61/3/2 62/3/2 66/3/2
f 65/4/2 61/4/2 66/4/2
f 62/4/2 63/4/2 67/4/2
f 66/3/2 62/3/2 67/3/2
f 67/4/2 63/4/2 68/4/2
f 71/5/3 70/5/3 69/5/3
f 72/5/3 70/5/3 71/5/3
f 75/5/3 74/5/3 73/5/3
f 76/5/3 74/5/3 75/5/3
f 79/5/3 78/5/3 77/5/3
f 80/5/3 78/5/3 79/5/3
f 83/4/3 82/4/3 81/4/3
f 84/4/3 82/4/3 83/4/3
f 87/4/3 86/4/3 85/4/3
f 88/4/3 86/4/3 87/4/3
f 92/2/3 90/2/3 89/2/3
f 93/1/3 91/1/3 90/1/3
f 93/2/3 90/2/3 92/2/3
f 94/2/3 92/2/3 89/2/3
f 94/1/3 93/1/3 92/1/3
f 95/1/3 93/1/3 94/1/3
f 96/2/3 94/2/3 89/2/3
f 96/2/3 95/2/3 94/2/3
f 97/1/3 93/1/3 95/1/3
f 97/2/3 95/2/3 96/2/3
f 98/1/3 91/1/3 93/1/3
f 98/1/3 93/1/3 97/1/3
f 99/4/4 100/4/4 101/4/4
f 101/2/4 102/2/4 104/2/4
f 102/1/4 103/1/4 105/1/4
f 104/2/4 102/2/4 105/2/4
f 101/2/4 104/2/4 106/2/4
f 104/1/4 105/1/4 106/1/4
f 105/1/4 103/1/4 107/1/4
f 106/1/4 105/1/4 107/1/4
f 99/4/4 101/4/4 108/4/4
f 101/2/4 106/2/4 108/2/4
f 106/2/4 107/2/4 108/2/4
f 107/1/4 103/1/4 109/1/4
f 108/2/4 107/2/4 109/2/4
f 109/1/4 103/1/4 110/1/4
f 99/4/4 108/4/4 111/4/4
f 111/4/4 108/4/4 112/4/4
f 119/5/5 114/5/5 113/5/5
f 120/5/5 114/5/5 119/5/5
f 121/5/5 116/5/5 115/5/5
f 122/5/5 116/5/5 121/5/5
f 123/5/5 118/5/5 117/5/5
f 124/5/5 118/5/5 123/5/5
f 125/4/5 120/4/5 119/4/5
f 126/4/5 120/4/5 125/4/5
f 127/4/5 122/4/5 121/4/5
f 128/4/5 122/4/5 127/4/5
f 129/4/5 124/4/5 123/4/5
f 130/4/5 124/4/5 129/4/5
f 131/3/5 126/3/5 125/3/5
f 132/3/5 126/3/5 131/3/5
f 133/3/5 128/3/5 127/3/5
f 134/3/5 128/3/5 133/3/5
f 135/3/5 130/3/5 129/3/5
f 136/3/5 130/3/5 135/3/5
f 137/4/5 132/4/5 131/4/5
f 137/4/5 134/4/5 133/4/5
f 137/4/5 136/4/5 135/4/5
f 137/4/5 135/4/5 134/4/5
f 137/4/5 133/4/5 132/4/5
f 138/4/5 136/4/5 137/4/5
f 139/5/6 140/5/6 145/5/6
f 145/5/6 140/5/6 146/5/6
f 141/5/6 142/5/6 147/5/6
f 147/5/6 142/5/6 148/5/6
f 143/5/6 144/5/6 149/5/6
f 149/5/6 144/5/6 150/5/6
f 145/4/6 146/4/6 151/4/6
f 151/4/6 146/4/6 152/4/6
f 147/4/6 148/4/6 153/4/6
f 153/4/6 148/4/6 154/4/6
f 149/4/6 150/4/6 155/4/6
f 155/4/6 150/4/6 156/4/6
f 151/3/6 152/3/6 157/3/6
f 157/3/6 152/3/6 158/3/6
f 153/3/6 154/3/6 159/3/6
f 159/3/6 154/3/6 160/3/6
f 155/3/6 156/3/6 161/3/6
f 161/3/6 156/3/6 162/3/6
f 157/4/6 158/4/6 163/4/6
f 159/4/6 160/4/6 163/4/6
f 161/4/6 162/4/6 163/4/6
f 160/4/6 161/4/6 163/4/6
f 158/4/6 159/4/6 163/4/6
f 163/4/6 162/4/6 164/4/6
f 157/4/6 163/4/6 165/4/6
f 165/4/6 163/4/6 166/4/6
f 164/4/6 162/4/6 167/4/6
f 167/4/6 162/4/6 168/4/6
f 169/1/6 170/1/6 171/1/6
f 171/1/6 170/1/6 172/1/6
