# MagicaVoxel @ ephtracy

# material
mtllib pressE.mtl
usemtl palette

# normals
vn -1 0 0
vn 1 0 0
vn 0 0 1
vn 0 0 -1
vn 0 -1 0
vn 0 1 0

# texcoords
vt 0.958984 0.5
vt 0.994141 0.5

# verts
v -7 0 1
v -7 0 -0
v -7 18 1
v -7 18 -0
v 8 0 1
v 8 0 -0
v 8 18 1
v 8 18 -0
v -7 0 1
v -7 18 1
v -5 2 1
v -5 16 1
v -2 5 1
v -2 7 1
v -2 10 1
v -2 12 1
v 6 2 1
v 6 5 1
v 6 7 1
v 6 10 1
v 6 12 1
v 6 16 1
v 8 0 1
v 8 18 1
v -7 0 -0
v -7 18 -0
v -5 2 -0
v -5 16 -0
v -2 5 -0
v -2 7 -0
v -2 10 -0
v -2 12 -0
v 6 2 -0
v 6 5 -0
v 6 7 -0
v 6 10 -0
v 6 12 -0
v 6 16 -0
v 8 0 -0
v 8 18 -0
v -7 0 1
v 8 0 1
v -7 0 -0
v 8 0 -0
v -7 18 1
v 8 18 1
v -7 18 -0
v 8 18 -0

# faces
f 3/1/1 2/1/1 1/1/1
f 4/1/1 2/1/1 3/1/1
f 5/1/2 6/1/2 7/1/2
f 7/1/2 6/1/2 8/1/2
f 11/1/3 10/1/3 9/1/3
f 12/1/3 10/1/3 11/1/3
f 13/2/3 12/2/3 11/2/3
f 14/2/3 12/2/3 13/2/3
f 15/2/3 12/2/3 14/2/3
f 16/2/3 12/2/3 15/2/3
f 17/1/3 11/1/3 9/1/3
f 17/2/3 13/2/3 11/2/3
f 18/1/3 14/1/3 13/1/3
f 18/2/3 13/2/3 17/2/3
f 19/2/3 15/2/3 14/2/3
f 19/1/3 14/1/3 18/1/3
f 20/1/3 16/1/3 15/1/3
f 20/2/3 15/2/3 19/2/3
f 21/2/3 12/2/3 16/2/3
f 21/1/3 16/1/3 20/1/3
f 22/1/3 10/1/3 12/1/3
f 22/2/3 12/2/3 21/2/3
f 23/1/3 20/1/3 19/1/3
f 23/1/3 21/1/3 20/1/3
f 23/1/3 22/1/3 21/1/3
f 23/1/3 18/1/3 17/1/3
f 23/1/3 17/1/3 9/1/3
f 23/1/3 19/1/3 18/1/3
f 24/1/3 10/1/3 22/1/3
f 24/1/3 22/1/3 23/1/3
f 25/1/4 26/1/4 27/1/4
f 27/1/4 26/1/4 28/1/4
f 27/2/4 28/2/4 29/2/4
f 29/2/4 28/2/4 30/2/4
f 30/2/4 28/2/4 31/2/4
f 31/2/4 28/2/4 32/2/4
f 25/1/4 27/1/4 33/1/4
f 27/2/4 29/2/4 33/2/4
f 29/1/4 30/1/4 34/1/4
f 33/2/4 29/2/4 34/2/4
f 30/2/4 31/2/4 35/2/4
f 34/1/4 30/1/4 35/1/4
f 31/1/4 32/1/4 36/1/4
f 35/2/4 31/2/4 36/2/4
f 32/2/4 28/2/4 37/2/4
f 36/1/4 32/1/4 37/1/4
f 28/1/4 26/1/4 38/1/4
f 37/2/4 28/2/4 38/2/4
f 35/1/4 36/1/4 39/1/4
f 36/1/4 37/1/4 39/1/4
f 37/1/4 38/1/4 39/1/4
f 33/1/4 34/1/4 39/1/4
f 25/1/4 33/1/4 39/1/4
f 34/1/4 35/1/4 39/1/4
f 38/1/4 26/1/4 40/1/4
f 39/1/4 38/1/4 40/1/4
f 43/1/5 42/1/5 41/1/5
f 44/1/5 42/1/5 43/1/5
f 45/1/6 46/1/6 47/1/6
f 47/1/6 46/1/6 48/1/6
