# MagicaVoxel @ ephtracy

# material
mtllib sickle.mtl
usemtl palette

# normals
vn -1 0 0
vn 1 0 0
vn 0 0 1
vn 0 0 -1
vn 0 -1 0
vn 0 1 0

# texcoords
vt 0.841797 0.5
vt 0.958984 0.5
vt 0.994141 0.5

# verts
v -8.5 26 -2.5
v -8.5 26 -3.5
v -8.5 27 -2.5
v -8.5 27 -3.5
v -7.5 27 -2.5
v -7.5 27 -3.5
v -7.5 28 -2.5
v -7.5 28 -3.5
v -6.5 28 -2.5
v -6.5 28 -3.5
v -6.5 29 -2.5
v -6.5 29 -3.5
v -5.5 29 -2.5
v -5.5 29 -3.5
v -5.5 30 -2.5
v -5.5 30 -3.5
v -4.5 30 -2.5
v -4.5 30 -3.5
v -4.5 31 -2.5
v -4.5 31 -3.5
v 3.5 28 -2.5
v 3.5 28 -3.5
v 3.5 29 -2.5
v 3.5 29 -3.5
v 4.5 27 -2.5
v 4.5 27 -3.5
v 4.5 28 -2.5
v 4.5 28 -3.5
v 5.5 26 -2.5
v 5.5 26 -3.5
v 5.5 27 -2.5
v 5.5 27 -3.5
v 6.5 0 -2.5
v 6.5 0 -3.5
v 6.5 1 -2.5
v 6.5 1 -3.5
v 6.5 26 -2.5
v 6.5 26 -3.5
v -7.5 26 -2.5
v -7.5 26 -3.5
v -7.5 27 -2.5
v -7.5 27 -3.5
v -4.5 27 -2.5
v -4.5 27 -3.5
v -4.5 28 -2.5
v -4.5 28 -3.5
v -2.5 28 -2.5
v -2.5 28 -3.5
v -2.5 29 -2.5
v -2.5 29 -3.5
v 7.5 0 -2.5
v 7.5 0 -3.5
v 7.5 1 -2.5
v 7.5 1 -3.5
v 7.5 31 -2.5
v 7.5 31 -3.5
v -8.5 26 -2.5
v -8.5 27 -2.5
v -7.5 26 -2.5
v -7.5 27 -2.5
v -7.5 28 -2.5
v -6.5 28 -2.5
v -6.5 29 -2.5
v -5.5 29 -2.5
v -5.5 30 -2.5
v -4.5 27 -2.5
v -4.5 28 -2.5
v -4.5 30 -2.5
v -4.5 31 -2.5
v -2.5 28 -2.5
v -2.5 29 -2.5
v 3.5 28 -2.5
v 3.5 29 -2.5
v 4.5 27 -2.5
v 4.5 28 -2.5
v 5.5 26 -2.5
v 5.5 27 -2.5
v 6.5 0 -2.5
v 6.5 1 -2.5
v 6.5 26 -2.5
v 6.5 31 -2.5
v 7.5 0 -2.5
v 7.5 1 -2.5
v 7.5 31 -2.5
v -8.5 26 -3.5
v -8.5 27 -3.5
v -7.5 26 -3.5
v -7.5 27 -3.5
v -7.5 28 -3.5
v -6.5 28 -3.5
v -6.5 29 -3.5
v -5.5 29 -3.5
v -5.5 30 -3.5
v -4.5 27 -3.5
v -4.5 28 -3.5
v -4.5 30 -3.5
v -4.5 31 -3.5
v -2.5 28 -3.5
v -2.5 29 -3.5
v 3.5 28 -3.5
v 3.5 29 -3.5
v 4.5 27 -3.5
v 4.5 28 -3.5
v 5.5 26 -3.5
v 5.5 27 -3.5
v 6.5 0 -3.5
v 6.5 1 -3.5
v 6.5 26 -3.5
v 6.5 31 -3.5
v 7.5 0 -3.5
v 7.5 1 -3.5
v 7.5 31 -3.5
v 6.5 0 -2.5
v 7.5 0 -2.5
v 6.5 0 -3.5
v 7.5 0 -3.5
v -8.5 26 -2.5
v -7.5 26 -2.5
v 5.5 26 -2.5
v 6.5 26 -2.5
v -8.5 26 -3.5
v -7.5 26 -3.5
v 5.5 26 -3.5
v 6.5 26 -3.5
v -7.5 27 -2.5
v -4.5 27 -2.5
v 4.5 27 -2.5
v 5.5 27 -2.5
v -7.5 27 -3.5
v -4.5 27 -3.5
v 4.5 27 -3.5
v 5.5 27 -3.5
v -4.5 28 -2.5
v -2.5 28 -2.5
v 3.5 28 -2.5
v 4.5 28 -2.5
v -4.5 28 -3.5
v -2.5 28 -3.5
v 3.5 28 -3.5
v 4.5 28 -3.5
v -2.5 29 -2.5
v 3.5 29 -2.5
v -2.5 29 -3.5
v 3.5 29 -3.5
v -8.5 27 -2.5
v -7.5 27 -2.5
v -8.5 27 -3.5
v -7.5 27 -3.5
v -7.5 28 -2.5
v -6.5 28 -2.5
v -7.5 28 -3.5
v -6.5 28 -3.5
v -6.5 29 -2.5
v -5.5 29 -2.5
v -6.5 29 -3.5
v -5.5 29 -3.5
v -5.5 30 -2.5
v -4.5 30 -2.5
v -5.5 30 -3.5
v -4.5 30 -3.5
v -4.5 31 -2.5
v 6.5 31 -2.5
v 7.5 31 -2.5
v -4.5 31 -3.5
v 6.5 31 -3.5
v 7.5 31 -3.5

# faces
f 3/2/1 2/2/1 1/2/1
f 4/2/1 2/2/1 3/2/1
f 7/2/1 6/2/1 5/2/1
f 8/2/1 6/2/1 7/2/1
f 11/2/1 10/2/1 9/2/1
f 12/2/1 10/2/1 11/2/1
f 15/2/1 14/2/1 13/2/1
f 16/2/1 14/2/1 15/2/1
f 19/2/1 18/2/1 17/2/1
f 20/2/1 18/2/1 19/2/1
f 23/2/1 22/2/1 21/2/1
f 24/2/1 22/2/1 23/2/1
f 27/2/1 26/2/1 25/2/1
f 28/2/1 26/2/1 27/2/1
f 31/2/1 30/2/1 29/2/1
f 32/2/1 30/2/1 31/2/1
f 35/1/1 34/1/1 33/1/1
f 36/1/1 34/1/1 35/1/1
f 37/3/1 36/3/1 35/3/1
f 38/3/1 36/3/1 37/3/1
f 39/2/2 40/2/2 41/2/2
f 41/2/2 40/2/2 42/2/2
f 43/2/2 44/2/2 45/2/2
f 45/2/2 44/2/2 46/2/2
f 47/2/2 48/2/2 49/2/2
f 49/2/2 48/2/2 50/2/2
f 51/1/2 52/1/2 53/1/2
f 53/1/2 52/1/2 54/1/2
f 53/3/2 54/3/2 55/3/2
f 55/3/2 54/3/2 56/3/2
f 59/2/3 58/2/3 57/2/3
f 60/2/3 58/2/3 59/2/3
f 62/2/3 61/2/3 60/2/3
f 64/2/3 63/2/3 62/2/3
f 66/2/3 62/2/3 60/2/3
f 66/2/3 65/2/3 64/2/3
f 66/2/3 64/2/3 62/2/3
f 67/2/3 65/2/3 66/2/3
f 68/2/3 65/2/3 67/2/3
f 70/2/3 69/2/3 68/2/3
f 70/2/3 68/2/3 67/2/3
f 71/2/3 69/2/3 70/2/3
f 73/2/3 69/2/3 71/2/3
f 75/2/3 73/2/3 72/2/3
f 77/2/3 75/2/3 74/2/3
f 80/2/3 77/2/3 76/2/3
f 81/2/3 69/2/3 73/2/3
f 81/2/3 73/2/3 75/2/3
f 81/2/3 77/2/3 80/2/3
f 81/2/3 75/2/3 77/2/3
f 82/1/3 79/1/3 78/1/3
f 83/3/3 80/3/3 79/3/3
f 83/1/3 79/1/3 82/1/3
f 83/3/3 81/3/3 80/3/3
f 84/3/3 81/3/3 83/3/3
f 85/2/4 86/2/4 87/2/4
f 87/2/4 86/2/4 88/2/4
f 88/2/4 89/2/4 90/2/4
f 90/2/4 91/2/4 92/2/4
f 88/2/4 90/2/4 94/2/4
f 92/2/4 93/2/4 94/2/4
f 90/2/4 92/2/4 94/2/4
f 94/2/4 93/2/4 95/2/4
f 95/2/4 93/2/4 96/2/4
f 96/2/4 97/2/4 98/2/4
f 95/2/4 96/2/4 98/2/4
f 98/2/4 97/2/4 99/2/4
f 99/2/4 97/2/4 101/2/4
f 100/2/4 101/2/4 103/2/4
f 102/2/4 103/2/4 105/2/4
f 104/2/4 105/2/4 108/2/4
f 101/2/4 97/2/4 109/2/4
f 103/2/4 101/2/4 109/2/4
f 108/2/4 105/2/4 109/2/4
f 105/2/4 103/2/4 109/2/4
f 106/1/4 107/1/4 110/1/4
f 107/3/4 108/3/4 111/3/4
f 110/1/4 107/1/4 111/1/4
f 108/3/4 109/3/4 111/3/4
f 111/3/4 109/3/4 112/3/4
f 115/1/5 114/1/5 113/1/5
f 116/1/5 114/1/5 115/1/5
f 121/2/5 118/2/5 117/2/5
f 122/2/5 118/2/5 121/2/5
f 123/2/5 120/2/5 119/2/5
f 124/2/5 120/2/5 123/2/5
f 129/2/5 126/2/5 125/2/5
f 130/2/5 126/2/5 129/2/5
f 131/2/5 128/2/5 127/2/5
f 132/2/5 128/2/5 131/2/5
f 137/2/5 134/2/5 133/2/5
f 138/2/5 134/2/5 137/2/5
f 139/2/5 136/2/5 135/2/5
f 140/2/5 136/2/5 139/2/5
f 143/2/5 142/2/5 141/2/5
f 144/2/5 142/2/5 143/2/5
f 145/2/6 146/2/6 147/2/6
f 147/2/6 146/2/6 148/2/6
f 149/2/6 150/2/6 151/2/6
f 151/2/6 150/2/6 152/2/6
f 153/2/6 154/2/6 155/2/6
f 155/2/6 154/2/6 156/2/6
f 157/2/6 158/2/6 159/2/6
f 159/2/6 158/2/6 160/2/6
f 161/2/6 162/2/6 164/2/6
f 162/3/6 163/3/6 165/3/6
f 164/2/6 162/2/6 165/2/6
f 165/3/6 163/3/6 166/3/6
