# MagicaVoxel @ ephtracy

# material
mtllib tai.mtl
usemtl palette

# normals
vn -1 0 0
vn 1 0 0
vn 0 0 1
vn 0 0 -1
vn 0 -1 0
vn 0 1 0

# texcoords
vt 0.369141 0.5
vt 0.845703 0.5
vt 0.962891 0.5
vt 0.978516 0.5
vt 0.982422 0.5
vt 0.994141 0.5

# verts
v -8.5 0 3.5
v -8.5 0 -1.5
v -8.5 1 3.5
v -8.5 1 1.5
v -8.5 1 0.5
v -8.5 1 -1.5
v -8.5 3 1.5
v -8.5 3 0.5
v -7.5 0 5.5
v -7.5 0 3.5
v -7.5 0 -1.5
v -7.5 0 -3.5
v -7.5 1 5.5
v -7.5 1 3.5
v -7.5 1 -1.5
v -7.5 1 -3.5
v -7.5 3 1.5
v -7.5 3 0.5
v -7.5 5 1.5
v -7.5 5 0.5
v -6.5 0 6.5
v -6.5 0 5.5
v -6.5 0 -3.5
v -6.5 0 -4.5
v -6.5 1 6.5
v -6.5 1 5.5
v -6.5 1 -3.5
v -6.5 1 -4.5
v -6.5 5 1.5
v -6.5 5 0.5
v -6.5 6 1.5
v -6.5 6 0.5
v -5.5 0 7.5
v -5.5 0 6.5
v -5.5 0 -4.5
v -5.5 0 -5.5
v -5.5 1 7.5
v -5.5 1 6.5
v -5.5 1 -4.5
v -5.5 1 -5.5
v -5.5 6 1.5
v -5.5 6 0.5
v -5.5 7 1.5
v -5.5 7 0.5
v -4.5 1 2.5
v -4.5 1 1.5
v -4.5 3 2.5
v -4.5 3 1.5
v -3.5 0 8.5
v -3.5 0 7.5
v -3.5 0 -5.5
v -3.5 0 -6.5
v -3.5 1 8.5
v -3.5 1 7.5
v -3.5 1 -5.5
v -3.5 1 -6.5
v -3.5 3 2.5
v -3.5 3 1.5
v -3.5 4 2.5
v -3.5 4 1.5
v -3.5 7 1.5
v -3.5 7 0.5
v -3.5 8 1.5
v -3.5 8 0.5
v -2.5 1 5.5
v -2.5 1 2.5
v -2.5 2 5.5
v -2.5 2 4.5
v -2.5 2 3.5
v -2.5 2 2.5
v -2.5 3 4.5
v -2.5 3 3.5
v -2.5 4 2.5
v -2.5 4 1.5
v -2.5 5 2.5
v -2.5 5 1.5
v -0.5 0 1.5
v -0.5 0 0.5
v -0.5 1 4.5
v -0.5 1 3.5
v -0.5 1 2.5
v -0.5 1 1.5
v -0.5 1 0.5
v -0.5 2 4.5
v -0.5 2 3.5
v -0.5 2 2.5
v -0.5 2 1.5
v -1.5 0 1.5
v -1.5 0 0.5
v -1.5 1 4.5
v -1.5 1 3.5
v -1.5 1 2.5
v -1.5 1 1.5
v -1.5 1 0.5
v -1.5 2 4.5
v -1.5 2 3.5
v -1.5 2 2.5
v -1.5 2 1.5
v 0.5 1 5.5
v 0.5 1 2.5
v 0.5 2 5.5
v 0.5 2 4.5
v 0.5 2 3.5
v 0.5 2 2.5
v 0.5 3 4.5
v 0.5 3 3.5
v 0.5 4 2.5
v 0.5 4 1.5
v 0.5 5 2.5
v 0.5 5 1.5
v 1.5 0 8.5
v 1.5 0 7.5
v 1.5 0 -5.5
v 1.5 0 -6.5
v 1.5 1 8.5
v 1.5 1 7.5
v 1.5 1 -5.5
v 1.5 1 -6.5
v 1.5 3 2.5
v 1.5 3 1.5
v 1.5 4 2.5
v 1.5 4 1.5
v 1.5 7 1.5
v 1.5 7 0.5
v 1.5 8 1.5
v 1.5 8 0.5
v 2.5 1 2.5
v 2.5 1 1.5
v 2.5 3 2.5
v 2.5 3 1.5
v 3.5 0 7.5
v 3.5 0 6.5
v 3.5 0 -4.5
v 3.5 0 -5.5
v 3.5 1 7.5
v 3.5 1 6.5
v 3.5 1 -4.5
v 3.5 1 -5.5
v 3.5 6 1.5
v 3.5 6 0.5
v 3.5 7 1.5
v 3.5 7 0.5
v 4.5 0 6.5
v 4.5 0 5.5
v 4.5 0 -3.5
v 4.5 0 -4.5
v 4.5 1 6.5
v 4.5 1 5.5
v 4.5 1 -3.5
v 4.5 1 -4.5
v 4.5 5 1.5
v 4.5 5 0.5
v 4.5 6 1.5
v 4.5 6 0.5
v 5.5 0 5.5
v 5.5 0 3.5
v 5.5 0 -1.5
v 5.5 0 -3.5
v 5.5 1 5.5
v 5.5 1 3.5
v 5.5 1 -1.5
v 5.5 1 -3.5
v 5.5 3 1.5
v 5.5 3 0.5
v 5.5 5 1.5
v 5.5 5 0.5
v 6.5 0 3.5
v 6.5 0 -1.5
v 6.5 1 3.5
v 6.5 1 1.5
v 6.5 1 0.5
v 6.5 1 -1.5
v 6.5 3 1.5
v 6.5 3 0.5
v -3.5 0 8.5
v -3.5 1 8.5
v 1.5 0 8.5
v 1.5 1 8.5
v -5.5 0 7.5
v -5.5 1 7.5
v -3.5 0 7.5
v -3.5 1 7.5
v 1.5 0 7.5
v 1.5 1 7.5
v 3.5 0 7.5
v 3.5 1 7.5
v -6.5 0 6.5
v -6.5 1 6.5
v -5.5 0 6.5
v -5.5 1 6.5
v 3.5 0 6.5
v 3.5 1 6.5
v 4.5 0 6.5
v 4.5 1 6.5
v -7.5 0 5.5
v -7.5 1 5.5
v -6.5 0 5.5
v -6.5 1 5.5
v -2.5 1 5.5
v -2.5 2 5.5
v 0.5 1 5.5
v 0.5 2 5.5
v 4.5 0 5.5
v 4.5 1 5.5
v 5.5 0 5.5
v 5.5 1 5.5
v -2.5 2 4.5
v -2.5 3 4.5
v 0.5 2 4.5
v 0.5 3 4.5
v -8.5 0 3.5
v -8.5 1 3.5
v -7.5 0 3.5
v -7.5 1 3.5
v -1.5 1 3.5
v -1.5 2 3.5
v -0.5 1 3.5
v -0.5 2 3.5
v 5.5 0 3.5
v 5.5 1 3.5
v 6.5 0 3.5
v 6.5 1 3.5
v -4.5 1 2.5
v -4.5 3 2.5
v -3.5 3 2.5
v -3.5 4 2.5
v -2.5 1 2.5
v -2.5 2 2.5
v -2.5 4 2.5
v -2.5 5 2.5
v -1.5 2 2.5
v -1.5 3 2.5
v -0.5 2 2.5
v -0.5 3 2.5
v 0.5 1 2.5
v 0.5 2 2.5
v 0.5 4 2.5
v 0.5 5 2.5
v 1.5 3 2.5
v 1.5 4 2.5
v 2.5 1 2.5
v 2.5 3 2.5
v -8.5 1 1.5
v -8.5 3 1.5
v -7.5 1 1.5
v -7.5 2 1.5
v -7.5 3 1.5
v -7.5 5 1.5
v -6.5 1 1.5
v -6.5 2 1.5
v -6.5 4 1.5
v -6.5 5 1.5
v -6.5 6 1.5
v -5.5 2 1.5
v -5.5 4 1.5
v -5.5 5 1.5
v -5.5 6 1.5
v -5.5 7 1.5
v -4.5 1 1.5
v -4.5 3 1.5
v -4.5 4 1.5
v -4.5 5 1.5
v -4.5 6 1.5
v -3.5 3 1.5
v -3.5 4 1.5
v -3.5 6 1.5
v -3.5 7 1.5
v -3.5 8 1.5
v -2.5 4 1.5
v -2.5 5 1.5
v -2.5 6 1.5
v -1.5 1 1.5
v -1.5 2 1.5
v -0.5 1 1.5
v -0.5 2 1.5
v 0.5 4 1.5
v 0.5 5 1.5
v 0.5 6 1.5
v 1.5 3 1.5
v 1.5 4 1.5
v 1.5 6 1.5
v 1.5 7 1.5
v 1.5 8 1.5
v 2.5 1 1.5
v 2.5 3 1.5
v 2.5 4 1.5
v 2.5 5 1.5
v 2.5 6 1.5
v 3.5 2 1.5
v 3.5 4 1.5
v 3.5 5 1.5
v 3.5 6 1.5
v 3.5 7 1.5
v 4.5 1 1.5
v 4.5 2 1.5
v 4.5 4 1.5
v 4.5 5 1.5
v 4.5 6 1.5
v 5.5 1 1.5
v 5.5 2 1.5
v 5.5 3 1.5
v 5.5 5 1.5
v 6.5 1 1.5
v 6.5 3 1.5
v -1.5 0 0.5
v -1.5 1 0.5
v -0.5 0 0.5
v -0.5 1 0.5
v -1.5 1 4.5
v -1.5 2 4.5
v -0.5 1 4.5
v -0.5 2 4.5
v -2.5 2 3.5
v -2.5 3 3.5
v 0.5 2 3.5
v 0.5 3 3.5
v -1.5 1 2.5
v -1.5 2 2.5
v -0.5 1 2.5
v -0.5 2 2.5
v -1.5 0 1.5
v -1.5 1 1.5
v -0.5 0 1.5
v -0.5 1 1.5
v -8.5 1 0.5
v -8.5 3 0.5
v -7.5 1 0.5
v -7.5 2 0.5
v -7.5 3 0.5
v -7.5 5 0.5
v -6.5 1 0.5
v -6.5 2 0.5
v -6.5 4 0.5
v -6.5 5 0.5
v -6.5 6 0.5
v -5.5 2 0.5
v -5.5 4 0.5
v -5.5 5 0.5
v -5.5 6 0.5
v -5.5 7 0.5
v -4.5 4 0.5
v -4.5 5 0.5
v -4.5 6 0.5
v -3.5 6 0.5
v -3.5 7 0.5
v -3.5 8 0.5
v -2.5 5 0.5
v -2.5 6 0.5
v 0.5 5 0.5
v 0.5 6 0.5
v 1.5 6 0.5
v 1.5 7 0.5
v 1.5 8 0.5
v 2.5 4 0.5
v 2.5 5 0.5
v 2.5 6 0.5
v 3.5 2 0.5
v 3.5 4 0.5
v 3.5 5 0.5
v 3.5 6 0.5
v 3.5 7 0.5
v 4.5 1 0.5
v 4.5 2 0.5
v 4.5 4 0.5
v 4.5 5 0.5
v 4.5 6 0.5
v 5.5 1 0.5
v 5.5 2 0.5
v 5.5 3 0.5
v 5.5 5 0.5
v 6.5 1 0.5
v 6.5 3 0.5
v -8.5 0 -1.5
v -8.5 1 -1.5
v -7.5 0 -1.5
v -7.5 1 -1.5
v 5.5 0 -1.5
v 5.5 1 -1.5
v 6.5 0 -1.5
v 6.5 1 -1.5
v -7.5 0 -3.5
v -7.5 1 -3.5
v -6.5 0 -3.5
v -6.5 1 -3.5
v 4.5 0 -3.5
v 4.5 1 -3.5
v 5.5 0 -3.5
v 5.5 1 -3.5
v -6.5 0 -4.5
v -6.5 1 -4.5
v -5.5 0 -4.5
v -5.5 1 -4.5
v 3.5 0 -4.5
v 3.5 1 -4.5
v 4.5 0 -4.5
v 4.5 1 -4.5
v -5.5 0 -5.5
v -5.5 1 -5.5
v -3.5 0 -5.5
v -3.5 1 -5.5
v 1.5 0 -5.5
v 1.5 1 -5.5
v 3.5 0 -5.5
v 3.5 1 -5.5
v -3.5 0 -6.5
v -3.5 1 -6.5
v 1.5 0 -6.5
v 1.5 1 -6.5
v -3.5 0 8.5
v 1.5 0 8.5
v -5.5 0 7.5
v -3.5 0 7.5
v 1.5 0 7.5
v 3.5 0 7.5
v -6.5 0 6.5
v -5.5 0 6.5
v -3.5 0 6.5
v 1.5 0 6.5
v 3.5 0 6.5
v 4.5 0 6.5
v -7.5 0 5.5
v -6.5 0 5.5
v -5.5 0 5.5
v -2.5 0 5.5
v 0.5 0 5.5
v 3.5 0 5.5
v 4.5 0 5.5
v 5.5 0 5.5
v -8.5 0 3.5
v -7.5 0 3.5
v -6.5 0 3.5
v 4.5 0 3.5
v 5.5 0 3.5
v 6.5 0 3.5
v -4.5 0 2.5
v -2.5 0 2.5
v 0.5 0 2.5
v 2.5 0 2.5
v -7.5 0 1.5
v -4.5 0 1.5
v -1.5 0 1.5
v -0.5 0 1.5
v 2.5 0 1.5
v 5.5 0 1.5
v -7.5 0 0.5
v -1.5 0 0.5
v -0.5 0 0.5
v 5.5 0 0.5
v -8.5 0 -1.5
v -7.5 0 -1.5
v -6.5 0 -1.5
v 4.5 0 -1.5
v 5.5 0 -1.5
v 6.5 0 -1.5
v -7.5 0 -3.5
v -6.5 0 -3.5
v -5.5 0 -3.5
v 3.5 0 -3.5
v 4.5 0 -3.5
v 5.5 0 -3.5
v -6.5 0 -4.5
v -5.5 0 -4.5
v -3.5 0 -4.5
v 1.5 0 -4.5
v 3.5 0 -4.5
v 4.5 0 -4.5
v -5.5 0 -5.5
v -3.5 0 -5.5
v 1.5 0 -5.5
v 3.5 0 -5.5
v -3.5 0 -6.5
v 1.5 0 -6.5
v -1.5 1 1.5
v -0.5 1 1.5
v -1.5 1 0.5
v -0.5 1 0.5
v -1.5 2 4.5
v -0.5 2 4.5
v -1.5 2 3.5
v -0.5 2 3.5
v -1.5 2 2.5
v -0.5 2 2.5
v -1.5 2 1.5
v -0.5 2 1.5
v -3.5 1 8.5
v 1.5 1 8.5
v -5.5 1 7.5
v -3.5 1 7.5
v 1.5 1 7.5
v 3.5 1 7.5
v -6.5 1 6.5
v -5.5 1 6.5
v -3.5 1 6.5
v 1.5 1 6.5
v 3.5 1 6.5
v 4.5 1 6.5
v -7.5 1 5.5
v -6.5 1 5.5
v -5.5 1 5.5
v -2.5 1 5.5
v 0.5 1 5.5
v 3.5 1 5.5
v 4.5 1 5.5
v 5.5 1 5.5
v -1.5 1 4.5
v -0.5 1 4.5
v -8.5 1 3.5
v -7.5 1 3.5
v -6.5 1 3.5
v -1.5 1 3.5
v -0.5 1 3.5
v 4.5 1 3.5
v 5.5 1 3.5
v 6.5 1 3.5
v -4.5 1 2.5
v -2.5 1 2.5
v -1.5 1 2.5
v -0.5 1 2.5
v 0.5 1 2.5
v 2.5 1 2.5
v -8.5 1 1.5
v -7.5 1 1.5
v -6.5 1 1.5
v -4.5 1 1.5
v -1.5 1 1.5
v -0.5 1 1.5
v 2.5 1 1.5
v 4.5 1 1.5
v 5.5 1 1.5
v 6.5 1 1.5
v -8.5 1 0.5
v -7.5 1 0.5
v -6.5 1 0.5
v 4.5 1 0.5
v 5.5 1 0.5
v 6.5 1 0.5
v -8.5 1 -1.5
v -7.5 1 -1.5
v -6.5 1 -1.5
v 4.5 1 -1.5
v 5.5 1 -1.5
v 6.5 1 -1.5
v -7.5 1 -3.5
v -6.5 1 -3.5
v -5.5 1 -3.5
v 3.5 1 -3.5
v 4.5 1 -3.5
v 5.5 1 -3.5
v -6.5 1 -4.5
v -5.5 1 -4.5
v -3.5 1 -4.5
v 1.5 1 -4.5
v 3.5 1 -4.5
v 4.5 1 -4.5
v -5.5 1 -5.5
v -3.5 1 -5.5
v 1.5 1 -5.5
v 3.5 1 -5.5
v -3.5 1 -6.5
v 1.5 1 -6.5
v -2.5 2 5.5
v 0.5 2 5.5
v -2.5 2 4.5
v 0.5 2 4.5
v -2.5 2 3.5
v 0.5 2 3.5
v -2.5 2 2.5
v -1.5 2 2.5
v -0.5 2 2.5
v 0.5 2 2.5
v -2.5 3 4.5
v 0.5 3 4.5
v -2.5 3 3.5
v 0.5 3 3.5
v -4.5 3 2.5
v -3.5 3 2.5
v 1.5 3 2.5
v 2.5 3 2.5
v -8.5 3 1.5
v -7.5 3 1.5
v -4.5 3 1.5
v -3.5 3 1.5
v 1.5 3 1.5
v 2.5 3 1.5
v 5.5 3 1.5
v 6.5 3 1.5
v -8.5 3 0.5
v -7.5 3 0.5
v 5.5 3 0.5
v 6.5 3 0.5
v -3.5 4 2.5
v -2.5 4 2.5
v 0.5 4 2.5
v 1.5 4 2.5
v -3.5 4 1.5
v -2.5 4 1.5
v 0.5 4 1.5
v 1.5 4 1.5
v -2.5 5 2.5
v 0.5 5 2.5
v -7.5 5 1.5
v -6.5 5 1.5
v -2.5 5 1.5
v 0.5 5 1.5
v 4.5 5 1.5
v 5.5 5 1.5
v -7.5 5 0.5
v -6.5 5 0.5
v 4.5 5 0.5
v 5.5 5 0.5
v -6.5 6 1.5
v -5.5 6 1.5
v 3.5 6 1.5
v 4.5 6 1.5
v -6.5 6 0.5
v -5.5 6 0.5
v 3.5 6 0.5
v 4.5 6 0.5
v -5.5 7 1.5
v -3.5 7 1.5
v 1.5 7 1.5
v 3.5 7 1.5
v -5.5 7 0.5
v -3.5 7 0.5
v 1.5 7 0.5
v 3.5 7 0.5
v -3.5 8 1.5
v 1.5 8 1.5
v -3.5 8 0.5
v 1.5 8 0.5

# faces
f 3/3/1 2/3/1 1/3/1
f 4/3/1 2/3/1 3/3/1
f 5/3/1 2/3/1 4/3/1
f 6/3/1 2/3/1 5/3/1
f 7/5/1 5/5/1 4/5/1
f 8/5/1 5/5/1 7/5/1
f 13/3/1 10/3/1 9/3/1
f 14/3/1 10/3/1 13/3/1
f 15/3/1 12/3/1 11/3/1
f 16/3/1 12/3/1 15/3/1
f 19/5/1 18/5/1 17/5/1
f 20/5/1 18/5/1 19/5/1
f 25/3/1 22/3/1 21/3/1
f 26/3/1 22/3/1 25/3/1
f 27/3/1 24/3/1 23/3/1
f 28/3/1 24/3/1 27/3/1
f 31/5/1 30/5/1 29/5/1
f 32/5/1 30/5/1 31/5/1
f 37/3/1 34/3/1 33/3/1
f 38/3/1 34/3/1 37/3/1
f 39/3/1 36/3/1 35/3/1
f 40/3/1 36/3/1 39/3/1
f 43/5/1 42/5/1 41/5/1
f 44/5/1 42/5/1 43/5/1
f 47/4/1 46/4/1 45/4/1
f 48/4/1 46/4/1 47/4/1
f 53/3/1 50/3/1 49/3/1
f 54/3/1 50/3/1 53/3/1
f 55/3/1 52/3/1 51/3/1
f 56/3/1 52/3/1 55/3/1
f 59/4/1 58/4/1 57/4/1
f 60/4/1 58/4/1 59/4/1
f 63/5/1 62/5/1 61/5/1
f 64/5/1 62/5/1 63/5/1
f 67/4/1 66/4/1 65/4/1
f 68/4/1 66/4/1 67/4/1
f 69/4/1 66/4/1 68/4/1
f 70/4/1 66/4/1 69/4/1
f 71/4/1 69/4/1 68/4/1
f 72/4/1 69/4/1 71/4/1
f 75/4/1 74/4/1 73/4/1
f 76/4/1 74/4/1 75/4/1
f 82/1/1 78/1/1 77/1/1
f 83/1/1 78/1/1 82/1/1
f 84/4/1 80/4/1 79/4/1
f 85/4/1 80/4/1 84/4/1
f 86/1/1 82/1/1 81/1/1
f 87/1/1 82/1/1 86/1/1
f 88/1/2 89/1/2 93/1/2
f 93/1/2 89/1/2 94/1/2
f 90/4/2 91/4/2 95/4/2
f 95/4/2 91/4/2 96/4/2
f 92/1/2 93/1/2 97/1/2
f 97/1/2 93/1/2 98/1/2
f 99/4/2 100/4/2 101/4/2
f 101/4/2 100/4/2 102/4/2
f 102/4/2 100/4/2 103/4/2
f 103/4/2 100/4/2 104/4/2
f 102/4/2 103/4/2 105/4/2
f 105/4/2 103/4/2 106/4/2
f 107/4/2 108/4/2 109/4/2
f 109/4/2 108/4/2 110/4/2
f 111/3/2 112/3/2 115/3/2
f 115/3/2 112/3/2 116/3/2
f 113/3/2 114/3/2 117/3/2
f 117/3/2 114/3/2 118/3/2
f 119/4/2 120/4/2 121/4/2
f 121/4/2 120/4/2 122/4/2
f 123/5/2 124/5/2 125/5/2
f 125/5/2 124/5/2 126/5/2
f 127/4/2 128/4/2 129/4/2
f 129/4/2 128/4/2 130/4/2
f 131/3/2 132/3/2 135/3/2
f 135/3/2 132/3/2 136/3/2
f 133/3/2 134/3/2 137/3/2
f 137/3/2 134/3/2 138/3/2
f 139/5/2 140/5/2 141/5/2
f 141/5/2 140/5/2 142/5/2
f 143/3/2 144/3/2 147/3/2
f 147/3/2 144/3/2 148/3/2
f 145/3/2 146/3/2 149/3/2
f 149/3/2 146/3/2 150/3/2
f 151/5/2 152/5/2 153/5/2
f 153/5/2 152/5/2 154/5/2
f 155/3/2 156/3/2 159/3/2
f 159/3/2 156/3/2 160/3/2
f 157/3/2 158/3/2 161/3/2
f 161/3/2 158/3/2 162/3/2
f 163/5/2 164/5/2 165/5/2
f 165/5/2 164/5/2 166/5/2
f 167/3/2 168/3/2 169/3/2
f 169/3/2 168/3/2 170/3/2
f 170/3/2 168/3/2 171/3/2
f 171/3/2 168/3/2 172/3/2
f 170/5/2 171/5/2 173/5/2
f 173/5/2 171/5/2 174/5/2
f 177/3/3 176/3/3 175/3/3
f 178/3/3 176/3/3 177/3/3
f 181/3/3 180/3/3 179/3/3
f 182/3/3 180/3/3 181/3/3
f 185/3/3 184/3/3 183/3/3
f 186/3/3 184/3/3 185/3/3
f 189/3/3 188/3/3 187/3/3
f 190/3/3 188/3/3 189/3/3
f 193/3/3 192/3/3 191/3/3
f 194/3/3 192/3/3 193/3/3
f 197/3/3 196/3/3 195/3/3
f 198/3/3 196/3/3 197/3/3
f 201/4/3 200/4/3 199/4/3
f 202/4/3 200/4/3 201/4/3
f 205/3/3 204/3/3 203/3/3
f 206/3/3 204/3/3 205/3/3
f 209/4/3 208/4/3 207/4/3
f 210/4/3 208/4/3 209/4/3
f 213/3/3 212/3/3 211/3/3
f 214/3/3 212/3/3 213/3/3
f 217/4/3 216/4/3 215/4/3
f 218/4/3 216/4/3 217/4/3
f 221/3/3 220/3/3 219/3/3
f 222/3/3 220/3/3 221/3/3
f 225/4/3 224/4/3 223/4/3
f 227/4/3 225/4/3 223/4/3
f 227/4/3 226/4/3 225/4/3
f 228/4/3 226/4/3 227/4/3
f 229/4/3 226/4/3 228/4/3
f 231/2/3 229/2/3 228/2/3
f 232/2/3 229/2/3 231/2/3
f 233/6/3 232/6/3 231/6/3
f 234/2/3 229/2/3 232/2/3
f 234/6/3 232/6/3 233/6/3
f 236/2/3 234/2/3 233/2/3
f 237/4/3 230/4/3 229/4/3
f 237/2/3 229/2/3 234/2/3
f 237/2/3 234/2/3 236/2/3
f 238/4/3 230/4/3 237/4/3
f 239/4/3 236/4/3 235/4/3
f 239/4/3 237/4/3 236/4/3
f 240/4/3 237/4/3 239/4/3
f 241/4/3 239/4/3 235/4/3
f 242/4/3 239/4/3 241/4/3
f 245/5/3 244/5/3 243/5/3
f 246/5/3 244/5/3 245/5/3
f 247/5/3 244/5/3 246/5/3
f 249/6/3 246/6/3 245/6/3
f 250/5/3 248/5/3 247/5/3
f 250/6/3 246/6/3 249/6/3
f 250/5/3 247/5/3 246/5/3
f 251/5/3 248/5/3 250/5/3
f 252/5/3 248/5/3 251/5/3
f 254/5/3 250/5/3 249/5/3
f 254/6/3 251/6/3 250/6/3
f 255/5/3 253/5/3 252/5/3
f 255/6/3 251/6/3 254/6/3
f 255/5/3 252/5/3 251/5/3
f 256/5/3 253/5/3 255/5/3
f 257/5/3 253/5/3 256/5/3
f 259/5/3 254/5/3 249/5/3
f 259/5/3 255/5/3 254/5/3
f 260/5/3 255/5/3 259/5/3
f 261/6/3 256/6/3 255/6/3
f 261/5/3 255/5/3 260/5/3
f 262/5/3 258/5/3 257/5/3
f 262/6/3 256/6/3 261/6/3
f 262/5/3 257/5/3 256/5/3
f 263/5/3 258/5/3 262/5/3
f 264/5/3 261/5/3 260/5/3
f 264/5/3 262/5/3 261/5/3
f 265/5/3 262/5/3 264/5/3
f 266/5/3 258/5/3 263/5/3
f 266/6/3 263/6/3 262/6/3
f 267/5/3 258/5/3 266/5/3
f 269/5/3 262/5/3 265/5/3
f 270/6/3 267/6/3 266/6/3
f 270/5/3 262/5/3 269/5/3
f 270/6/3 266/6/3 262/6/3
f 271/6/3 267/6/3 270/6/3
f 274/5/3 273/5/3 272/5/3
f 275/5/3 273/5/3 274/5/3
f 277/5/3 271/5/3 270/5/3
f 278/6/3 267/6/3 271/6/3
f 278/5/3 271/5/3 277/5/3
f 280/5/3 277/5/3 276/5/3
f 281/6/3 267/6/3 278/6/3
f 281/6/3 278/6/3 277/6/3
f 282/5/3 268/5/3 267/5/3
f 282/6/3 267/6/3 281/6/3
f 283/5/3 268/5/3 282/5/3
f 285/5/3 280/5/3 279/5/3
f 286/5/3 277/5/3 280/5/3
f 286/5/3 280/5/3 285/5/3
f 287/6/3 281/6/3 277/6/3
f 287/5/3 277/5/3 286/5/3
f 288/5/3 282/5/3 281/5/3
f 288/6/3 281/6/3 287/6/3
f 289/5/3 286/5/3 285/5/3
f 289/5/3 285/5/3 284/5/3
f 290/6/3 287/6/3 286/6/3
f 290/5/3 286/5/3 289/5/3
f 291/5/3 288/5/3 287/5/3
f 291/6/3 287/6/3 290/6/3
f 292/5/3 282/5/3 288/5/3
f 292/5/3 288/5/3 291/5/3
f 293/5/3 282/5/3 292/5/3
f 294/5/3 289/5/3 284/5/3
f 295/6/3 290/6/3 289/6/3
f 295/5/3 289/5/3 294/5/3
f 296/5/3 291/5/3 290/5/3
f 296/6/3 290/6/3 295/6/3
f 296/5/3 292/5/3 291/5/3
f 297/5/3 292/5/3 296/5/3
f 298/5/3 292/5/3 297/5/3
f 299/6/3 295/6/3 294/6/3
f 300/5/3 296/5/3 295/5/3
f 300/6/3 295/6/3 299/6/3
f 300/5/3 297/5/3 296/5/3
f 301/5/3 297/5/3 300/5/3
f 302/5/3 297/5/3 301/5/3
f 303/5/3 300/5/3 299/5/3
f 303/5/3 301/5/3 300/5/3
f 304/5/3 301/5/3 303/5/3
f 307/5/3 306/5/3 305/5/3
f 308/5/3 306/5/3 307/5/3
f 309/4/4 310/4/4 311/4/4
f 311/4/4 310/4/4 312/4/4
f 313/4/4 314/4/4 315/4/4
f 315/4/4 314/4/4 316/4/4
f 317/4/4 318/4/4 319/4/4
f 319/4/4 318/4/4 320/4/4
f 321/1/4 322/1/4 323/1/4
f 323/1/4 322/1/4 324/1/4
f 325/5/4 326/5/4 327/5/4
f 327/5/4 326/5/4 328/5/4
f 328/5/4 326/5/4 329/5/4
f 327/6/4 328/6/4 331/6/4
f 329/5/4 330/5/4 332/5/4
f 331/6/4 328/6/4 332/6/4
f 328/5/4 329/5/4 332/5/4
f 332/5/4 330/5/4 333/5/4
f 333/5/4 330/5/4 334/5/4
f 331/5/4 332/5/4 336/5/4
f 332/6/4 333/6/4 336/6/4
f 334/5/4 335/5/4 337/5/4
f 336/6/4 333/6/4 337/6/4
f 333/5/4 334/5/4 337/5/4
f 337/5/4 335/5/4 338/5/4
f 338/5/4 335/5/4 339/5/4
f 336/5/4 337/5/4 341/5/4
f 337/6/4 338/6/4 341/6/4
f 339/5/4 340/5/4 342/5/4
f 341/6/4 338/6/4 342/6/4
f 338/5/4 339/5/4 342/5/4
f 342/5/4 340/5/4 343/5/4
f 342/6/4 343/6/4 344/6/4
f 343/5/4 340/5/4 344/5/4
f 344/5/4 340/5/4 345/5/4
f 341/5/4 342/5/4 347/5/4
f 342/6/4 344/6/4 347/6/4
f 344/6/4 345/6/4 347/6/4
f 347/6/4 345/6/4 348/6/4
f 341/5/4 347/5/4 349/5/4
f 347/5/4 348/5/4 349/5/4
f 348/6/4 345/6/4 350/6/4
f 349/5/4 348/5/4 350/5/4
f 349/6/4 350/6/4 351/6/4
f 350/6/4 345/6/4 351/6/4
f 345/5/4 346/5/4 352/5/4
f 351/6/4 345/6/4 352/6/4
f 352/5/4 346/5/4 353/5/4
f 336/5/4 341/5/4 354/5/4
f 341/5/4 349/5/4 354/5/4
f 349/6/4 351/6/4 355/6/4
f 354/5/4 349/5/4 355/5/4
f 351/5/4 352/5/4 356/5/4
f 355/6/4 351/6/4 356/6/4
f 331/5/4 336/5/4 357/5/4
f 336/5/4 354/5/4 357/5/4
f 354/6/4 355/6/4 358/6/4
f 357/5/4 354/5/4 358/5/4
f 355/5/4 356/5/4 359/5/4
f 358/6/4 355/6/4 359/6/4
f 356/5/4 352/5/4 360/5/4
f 359/5/4 356/5/4 360/5/4
f 360/5/4 352/5/4 361/5/4
f 331/5/4 357/5/4 362/5/4
f 357/6/4 358/6/4 363/6/4
f 362/5/4 357/5/4 363/5/4
f 358/5/4 359/5/4 364/5/4
f 363/6/4 358/6/4 364/6/4
f 359/5/4 360/5/4 364/5/4
f 364/5/4 360/5/4 365/5/4
f 365/5/4 360/5/4 366/5/4
f 362/6/4 363/6/4 367/6/4
f 363/5/4 364/5/4 368/5/4
f 367/6/4 363/6/4 368/6/4
f 364/5/4 365/5/4 368/5/4
f 368/5/4 365/5/4 369/5/4
f 369/5/4 365/5/4 370/5/4
f 367/5/4 368/5/4 371/5/4
f 368/5/4 369/5/4 371/5/4
f 371/5/4 369/5/4 372/5/4
f 373/3/4 374/3/4 375/3/4
f 375/3/4 374/3/4 376/3/4
f 377/3/4 378/3/4 379/3/4
f 379/3/4 378/3/4 380/3/4
f 381/3/4 382/3/4 383/3/4
f 383/3/4 382/3/4 384/3/4
f 385/3/4 386/3/4 387/3/4
f 387/3/4 386/3/4 388/3/4
f 389/3/4 390/3/4 391/3/4
f 391/3/4 390/3/4 392/3/4
f 393/3/4 394/3/4 395/3/4
f 395/3/4 394/3/4 396/3/4
f 397/3/4 398/3/4 399/3/4
f 399/3/4 398/3/4 400/3/4
f 401/3/4 402/3/4 403/3/4
f 403/3/4 402/3/4 404/3/4
f 405/3/4 406/3/4 407/3/4
f 407/3/4 406/3/4 408/3/4
f 412/3/5 410/3/5 409/3/5
f 413/3/5 410/3/5 412/3/5
f 416/3/5 412/3/5 411/3/5
f 417/5/5 413/5/5 412/5/5
f 417/3/5 412/3/5 416/3/5
f 418/3/5 414/3/5 413/3/5
f 418/5/5 413/5/5 417/5/5
f 419/3/5 414/3/5 418/3/5
f 422/3/5 416/3/5 415/3/5
f 423/5/5 417/5/5 416/5/5
f 423/5/5 418/5/5 417/5/5
f 423/3/5 416/3/5 422/3/5
f 423/5/5 419/5/5 418/5/5
f 424/5/5 419/5/5 423/5/5
f 425/5/5 419/5/5 424/5/5
f 426/3/5 420/3/5 419/3/5
f 426/5/5 419/5/5 425/5/5
f 427/3/5 420/3/5 426/3/5
f 430/3/5 422/3/5 421/3/5
f 431/5/5 423/5/5 422/5/5
f 431/5/5 424/5/5 423/5/5
f 431/3/5 422/3/5 430/3/5
f 432/3/5 428/3/5 427/3/5
f 432/5/5 426/5/5 425/5/5
f 432/5/5 427/5/5 426/5/5
f 433/3/5 428/3/5 432/3/5
f 435/5/5 424/5/5 431/5/5
f 435/5/5 431/5/5 430/5/5
f 436/1/5 425/1/5 424/1/5
f 436/5/5 424/5/5 435/5/5
f 437/5/5 433/5/5 432/5/5
f 437/1/5 425/1/5 436/1/5
f 437/5/5 432/5/5 425/5/5
f 438/5/5 433/5/5 437/5/5
f 439/5/5 435/5/5 430/5/5
f 439/3/5 430/3/5 429/3/5
f 440/1/5 438/1/5 437/1/5
f 440/5/5 435/5/5 439/5/5
f 440/1/5 436/1/5 435/1/5
f 440/1/5 437/1/5 436/1/5
f 441/1/5 438/1/5 440/1/5
f 442/1/5 438/1/5 441/1/5
f 443/5/5 433/5/5 438/5/5
f 443/1/5 438/1/5 442/1/5
f 444/3/5 434/3/5 433/3/5
f 444/5/5 433/5/5 443/5/5
f 445/3/5 439/3/5 429/3/5
f 445/1/5 440/1/5 439/1/5
f 445/1/5 441/1/5 440/1/5
f 446/1/5 441/1/5 445/1/5
f 447/1/5 443/1/5 442/1/5
f 447/1/5 444/1/5 443/1/5
f 448/3/5 434/3/5 444/3/5
f 448/1/5 444/1/5 447/1/5
f 449/3/5 445/3/5 429/3/5
f 450/5/5 446/5/5 445/5/5
f 450/3/5 445/3/5 449/3/5
f 450/5/5 447/5/5 446/5/5
f 450/5/5 448/5/5 447/5/5
f 451/5/5 448/5/5 450/5/5
f 452/5/5 448/5/5 451/5/5
f 453/3/5 434/3/5 448/3/5
f 453/5/5 448/5/5 452/5/5
f 454/3/5 434/3/5 453/3/5
f 455/3/5 451/3/5 450/3/5
f 456/5/5 452/5/5 451/5/5
f 456/3/5 451/3/5 455/3/5
f 457/5/5 452/5/5 456/5/5
f 458/5/5 452/5/5 457/5/5
f 459/3/5 453/3/5 452/3/5
f 459/5/5 452/5/5 458/5/5
f 460/3/5 453/3/5 459/3/5
f 461/3/5 457/3/5 456/3/5
f 462/5/5 458/5/5 457/5/5
f 462/3/5 457/3/5 461/3/5
f 463/5/5 458/5/5 462/5/5
f 464/5/5 458/5/5 463/5/5
f 465/3/5 459/3/5 458/3/5
f 465/5/5 458/5/5 464/5/5
f 466/3/5 459/3/5 465/3/5
f 467/3/5 463/3/5 462/3/5
f 468/5/5 464/5/5 463/5/5
f 468/3/5 463/3/5 467/3/5
f 469/3/5 465/3/5 464/3/5
f 469/5/5 464/5/5 468/5/5
f 470/3/5 465/3/5 469/3/5
f 471/3/5 469/3/5 468/3/5
f 472/3/5 469/3/5 471/3/5
f 475/5/5 474/5/5 473/5/5
f 476/5/5 474/5/5 475/5/5
f 479/4/5 478/4/5 477/4/5
f 480/4/5 478/4/5 479/4/5
f 483/6/5 482/6/5 481/6/5
f 484/6/5 482/6/5 483/6/5
f 485/3/6 486/3/6 488/3/6
f 488/3/6 486/3/6 489/3/6
f 487/3/6 488/3/6 492/3/6
f 488/5/6 489/5/6 493/5/6
f 492/3/6 488/3/6 493/3/6
f 489/3/6 490/3/6 494/3/6
f 493/5/6 489/5/6 494/5/6
f 494/3/6 490/3/6 495/3/6
f 491/3/6 492/3/6 498/3/6
f 492/5/6 493/5/6 499/5/6
f 493/5/6 494/5/6 499/5/6
f 498/3/6 492/3/6 499/3/6
f 494/5/6 495/5/6 499/5/6
f 499/5/6 495/5/6 500/5/6
f 500/5/6 495/5/6 501/5/6
f 495/3/6 496/3/6 502/3/6
f 501/5/6 495/5/6 502/5/6
f 502/3/6 496/3/6 503/3/6
f 497/3/6 498/3/6 508/3/6
f 498/5/6 499/5/6 509/5/6
f 499/5/6 500/5/6 509/5/6
f 508/3/6 498/3/6 509/3/6
f 505/1/6 506/1/6 510/1/6
f 510/1/6 506/1/6 511/1/6
f 503/3/6 504/3/6 512/3/6
f 501/5/6 502/5/6 512/5/6
f 502/5/6 503/5/6 512/5/6
f 512/3/6 504/3/6 513/3/6
f 509/5/6 500/5/6 515/5/6
f 508/5/6 509/5/6 515/5/6
f 515/5/6 500/5/6 516/5/6
f 512/5/6 513/5/6 519/5/6
f 501/5/6 512/5/6 519/5/6
f 519/5/6 513/5/6 520/5/6
f 507/3/6 508/3/6 521/3/6
f 508/5/6 515/5/6 522/5/6
f 521/3/6 508/3/6 522/3/6
f 522/5/6 515/5/6 523/5/6
f 523/5/6 515/5/6 524/5/6
f 517/1/6 518/1/6 525/1/6
f 525/1/6 518/1/6 526/1/6
f 520/5/6 513/5/6 527/5/6
f 527/5/6 513/5/6 528/5/6
f 513/3/6 514/3/6 529/3/6
f 528/5/6 513/5/6 529/5/6
f 529/3/6 514/3/6 530/3/6
f 531/3/6 532/3/6 537/3/6
f 532/5/6 533/5/6 538/5/6
f 537/3/6 532/3/6 538/3/6
f 533/5/6 534/5/6 538/5/6
f 534/5/6 535/5/6 538/5/6
f 538/5/6 535/5/6 539/5/6
f 539/5/6 535/5/6 540/5/6
f 535/3/6 536/3/6 541/3/6
f 540/5/6 535/5/6 541/5/6
f 541/3/6 536/3/6 542/3/6
f 538/3/6 539/3/6 543/3/6
f 539/5/6 540/5/6 544/5/6
f 543/3/6 539/3/6 544/3/6
f 544/5/6 540/5/6 545/5/6
f 545/5/6 540/5/6 546/5/6
f 540/3/6 541/3/6 547/3/6
f 546/5/6 540/5/6 547/5/6
f 547/3/6 541/3/6 548/3/6
f 544/3/6 545/3/6 549/3/6
f 545/5/6 546/5/6 550/5/6
f 549/3/6 545/3/6 550/3/6
f 550/5/6 546/5/6 551/5/6
f 551/5/6 546/5/6 552/5/6
f 546/3/6 547/3/6 553/3/6
f 552/5/6 546/5/6 553/5/6
f 553/3/6 547/3/6 554/3/6
f 550/3/6 551/3/6 555/3/6
f 551/5/6 552/5/6 556/5/6
f 555/3/6 551/3/6 556/3/6
f 552/3/6 553/3/6 557/3/6
f 556/5/6 552/5/6 557/5/6
f 557/3/6 553/3/6 558/3/6
f 556/3/6 557/3/6 559/3/6
f 559/3/6 557/3/6 560/3/6
f 561/4/6 562/4/6 563/4/6
f 563/4/6 562/4/6 564/4/6
f 565/4/6 566/4/6 567/4/6
f 567/4/6 566/4/6 568/4/6
f 568/4/6 566/4/6 569/4/6
f 569/4/6 566/4/6 570/4/6
f 571/4/6 572/4/6 573/4/6
f 573/4/6 572/4/6 574/4/6
f 575/4/6 576/4/6 581/4/6
f 581/4/6 576/4/6 582/4/6
f 577/4/6 578/4/6 583/4/6
f 583/4/6 578/4/6 584/4/6
f 579/5/6 580/5/6 587/5/6
f 587/5/6 580/5/6 588/5/6
f 585/5/6 586/5/6 589/5/6
f 589/5/6 586/5/6 590/5/6
f 591/4/6 592/4/6 595/4/6
f 595/4/6 592/4/6 596/4/6
f 593/4/6 594/4/6 597/4/6
f 597/4/6 594/4/6 598/4/6
f 599/4/6 600/4/6 603/4/6
f 603/4/6 600/4/6 604/4/6
f 601/5/6 602/5/6 607/5/6
f 607/5/6 602/5/6 608/5/6
f 605/5/6 606/5/6 609/5/6
f 609/5/6 606/5/6 610/5/6
f 611/5/6 612/5/6 615/5/6
f 615/5/6 612/5/6 616/5/6
f 613/5/6 614/5/6 617/5/6
f 617/5/6 614/5/6 618/5/6
f 619/5/6 620/5/6 623/5/6
f 623/5/6 620/5/6 624/5/6
f 621/5/6 622/5/6 625/5/6
f 625/5/6 622/5/6 626/5/6
f 627/5/6 628/5/6 629/5/6
f 629/5/6 628/5/6 630/5/6
