# MagicaVoxel @ ephtracy

# material
mtllib thor_harmer.mtl
usemtl palette

# normals
vn -1 0 0
vn 1 0 0
vn 0 0 1
vn 0 0 -1
vn 0 -1 0
vn 0 1 0

# texcoords
vt 0.962891 0.5
vt 0.966797 0.5
vt 0.994141 0.5

# verts
v -9.5 11 4.5
v -9.5 11 -2.5
v -9.5 12 3.5
v -9.5 12 -1.5
v -9.5 13 2.5
v -9.5 13 -0.5
v -9.5 19 2.5
v -9.5 19 -0.5
v -9.5 20 3.5
v -9.5 20 -1.5
v -9.5 21 4.5
v -9.5 21 -2.5
v -8.5 12 3.5
v -8.5 12 -1.5
v -8.5 13 2.5
v -8.5 13 -0.5
v -8.5 19 2.5
v -8.5 19 -0.5
v -8.5 20 3.5
v -8.5 20 -1.5
v -6.5 11 4.5
v -6.5 11 -0.5
v -6.5 11 -1.5
v -6.5 11 -2.5
v -6.5 12 3.5
v -6.5 12 -0.5
v -6.5 12 -1.5
v -6.5 20 3.5
v -6.5 20 -1.5
v -6.5 21 4.5
v -6.5 21 -2.5
v -5.5 11 -0.5
v -5.5 11 -1.5
v -5.5 12 -0.5
v -5.5 12 -1.5
v -3.5 13 4.5
v -3.5 13 3.5
v -3.5 14 4.5
v -3.5 14 3.5
v -2.5 17 4.5
v -2.5 17 3.5
v -2.5 18 4.5
v -2.5 18 3.5
v -2.5 19 4.5
v -2.5 19 3.5
v -2.5 20 4.5
v -2.5 20 3.5
v -1.5 1 1.5
v -1.5 1 0.5
v -1.5 2 1.5
v -1.5 2 0.5
v -1.5 12 4.5
v -1.5 12 3.5
v -1.5 15 4.5
v -1.5 15 3.5
v -1.5 16 4.5
v -1.5 16 3.5
v -1.5 17 4.5
v -1.5 17 3.5
v -1.5 18 4.5
v -1.5 18 3.5
v -1.5 19 4.5
v -1.5 19 3.5
v -0.5 0 1.5
v -0.5 0 0.5
v -0.5 1 2.5
v -0.5 1 1.5
v -0.5 1 0.5
v -0.5 1 -0.5
v -0.5 2 2.5
v -0.5 2 1.5
v -0.5 2 0.5
v -0.5 2 -0.5
v -0.5 10 1.5
v -0.5 10 0.5
v -0.5 11 1.5
v -0.5 11 0.5
v 0.5 13 -1.5
v 0.5 13 -2.5
v 0.5 15 -1.5
v 0.5 15 -2.5
v 0.5 19 -1.5
v 0.5 19 -2.5
v 0.5 20 -1.5
v 0.5 20 -2.5
v 1.5 12 4.5
v 1.5 12 3.5
v 1.5 12 -1.5
v 1.5 12 -2.5
v 1.5 13 -1.5
v 1.5 13 -2.5
v 1.5 14 4.5
v 1.5 14 3.5
v 1.5 16 4.5
v 1.5 16 3.5
v 1.5 18 4.5
v 1.5 18 3.5
v 1.5 18 -1.5
v 1.5 18 -2.5
v 1.5 19 4.5
v 1.5 19 3.5
v 1.5 19 -1.5
v 1.5 19 -2.5
v 1.5 20 4.5
v 1.5 20 3.5
v 2.5 17 -1.5
v 2.5 17 -2.5
v 2.5 18 -1.5
v 2.5 18 -2.5
v 3.5 13 4.5
v 3.5 13 3.5
v 3.5 15 4.5
v 3.5 15 3.5
v 3.5 15 -1.5
v 3.5 15 -2.5
v 3.5 16 4.5
v 3.5 16 3.5
v 3.5 17 -1.5
v 3.5 17 -2.5
v 3.5 19 4.5
v 3.5 19 3.5
v 7.5 11 4.5
v 7.5 11 -2.5
v 7.5 12 3.5
v 7.5 12 -1.5
v 7.5 20 3.5
v 7.5 20 -1.5
v 7.5 21 4.5
v 7.5 21 -2.5
v -7.5 11 4.5
v -7.5 11 -2.5
v -7.5 12 3.5
v -7.5 12 -1.5
v -7.5 20 3.5
v -7.5 20 -1.5
v -7.5 21 4.5
v -7.5 21 -2.5
v -4.5 12 4.5
v -4.5 12 3.5
v -4.5 15 4.5
v -4.5 15 3.5
v -4.5 18 4.5
v -4.5 18 3.5
v -4.5 19 4.5
v -4.5 19 3.5
v -3.5 16 4.5
v -3.5 16 3.5
v -3.5 18 4.5
v -3.5 18 3.5
v -3.5 19 4.5
v -3.5 19 3.5
v -3.5 20 4.5
v -3.5 20 3.5
v -2.5 13 4.5
v -2.5 13 3.5
v -2.5 14 4.5
v -2.5 14 3.5
v -2.5 15 -1.5
v -2.5 15 -2.5
v -2.5 17 -1.5
v -2.5 17 -2.5
v -1.5 14 -1.5
v -1.5 14 -2.5
v -1.5 15 -1.5
v -1.5 15 -2.5
v -0.5 13 -1.5
v -0.5 13 -2.5
v -0.5 14 -1.5
v -0.5 14 -2.5
v -0.5 19 -1.5
v -0.5 19 -2.5
v -0.5 20 -1.5
v -0.5 20 -2.5
v 0.5 0 1.5
v 0.5 0 0.5
v 0.5 1 2.5
v 0.5 1 1.5
v 0.5 1 0.5
v 0.5 1 -0.5
v 0.5 2 2.5
v 0.5 2 1.5
v 0.5 2 0.5
v 0.5 2 -0.5
v 0.5 10 1.5
v 0.5 10 0.5
v 0.5 11 1.5
v 0.5 11 0.5
v 0.5 12 4.5
v 0.5 12 3.5
v 0.5 12 -1.5
v 0.5 12 -2.5
v 0.5 13 -1.5
v 0.5 13 -2.5
v 0.5 15 4.5
v 0.5 15 3.5
v 0.5 16 4.5
v 0.5 16 3.5
v 0.5 17 -1.5
v 0.5 17 -2.5
v 0.5 19 -1.5
v 0.5 19 -2.5
v 0.5 20 4.5
v 0.5 20 3.5
v 1.5 1 1.5
v 1.5 1 0.5
v 1.5 2 1.5
v 1.5 2 0.5
v 2.5 13 4.5
v 2.5 13 3.5
v 2.5 14 4.5
v 2.5 14 3.5
v 2.5 16 4.5
v 2.5 16 3.5
v 2.5 18 4.5
v 2.5 18 3.5
v 6.5 11 4.5
v 6.5 11 -2.5
v 6.5 12 3.5
v 6.5 12 -1.5
v 6.5 20 3.5
v 6.5 20 -1.5
v 6.5 21 4.5
v 6.5 21 -2.5
v 8.5 12 3.5
v 8.5 12 -1.5
v 8.5 13 2.5
v 8.5 13 -0.5
v 8.5 19 2.5
v 8.5 19 -0.5
v 8.5 20 3.5
v 8.5 20 -1.5
v 9.5 11 4.5
v 9.5 11 -2.5
v 9.5 12 3.5
v 9.5 12 -1.5
v 9.5 13 2.5
v 9.5 13 -0.5
v 9.5 19 2.5
v 9.5 19 -0.5
v 9.5 20 3.5
v 9.5 20 -1.5
v 9.5 21 4.5
v 9.5 21 -2.5
v -9.5 11 4.5
v -9.5 21 4.5
v -7.5 11 4.5
v -7.5 21 4.5
v -6.5 11 4.5
v -6.5 21 4.5
v -4.5 12 4.5
v -4.5 15 4.5
v -4.5 18 4.5
v -4.5 19 4.5
v -3.5 13 4.5
v -3.5 14 4.5
v -3.5 16 4.5
v -3.5 18 4.5
v -3.5 19 4.5
v -3.5 20 4.5
v -2.5 13 4.5
v -2.5 14 4.5
v -2.5 17 4.5
v -2.5 18 4.5
v -2.5 19 4.5
v -2.5 20 4.5
v -1.5 12 4.5
v -1.5 15 4.5
v -1.5 16 4.5
v -1.5 17 4.5
v -1.5 18 4.5
v -1.5 19 4.5
v 0.5 12 4.5
v 0.5 15 4.5
v 0.5 16 4.5
v 0.5 20 4.5
v 1.5 12 4.5
v 1.5 14 4.5
v 1.5 16 4.5
v 1.5 18 4.5
v 1.5 19 4.5
v 1.5 20 4.5
v 2.5 13 4.5
v 2.5 14 4.5
v 2.5 16 4.5
v 2.5 18 4.5
v 3.5 13 4.5
v 3.5 15 4.5
v 3.5 16 4.5
v 3.5 19 4.5
v 6.5 11 4.5
v 6.5 21 4.5
v 7.5 11 4.5
v 7.5 21 4.5
v 9.5 11 4.5
v 9.5 21 4.5
v -7.5 12 3.5
v -7.5 20 3.5
v -6.5 12 3.5
v -6.5 20 3.5
v -4.5 12 3.5
v -4.5 15 3.5
v -4.5 18 3.5
v -4.5 19 3.5
v -3.5 13 3.5
v -3.5 14 3.5
v -3.5 16 3.5
v -3.5 18 3.5
v -3.5 19 3.5
v -3.5 20 3.5
v -2.5 13 3.5
v -2.5 14 3.5
v -2.5 17 3.5
v -2.5 18 3.5
v -2.5 19 3.5
v -2.5 20 3.5
v -1.5 12 3.5
v -1.5 15 3.5
v -1.5 16 3.5
v -1.5 17 3.5
v -1.5 18 3.5
v -1.5 19 3.5
v 0.5 12 3.5
v 0.5 15 3.5
v 0.5 16 3.5
v 0.5 20 3.5
v 1.5 12 3.5
v 1.5 14 3.5
v 1.5 16 3.5
v 1.5 18 3.5
v 1.5 19 3.5
v 1.5 20 3.5
v 2.5 13 3.5
v 2.5 14 3.5
v 2.5 16 3.5
v 2.5 18 3.5
v 3.5 13 3.5
v 3.5 15 3.5
v 3.5 16 3.5
v 3.5 19 3.5
v 6.5 12 3.5
v 6.5 20 3.5
v 7.5 12 3.5
v 7.5 20 3.5
v -9.5 13 2.5
v -9.5 19 2.5
v -8.5 13 2.5
v -8.5 19 2.5
v -0.5 1 2.5
v -0.5 2 2.5
v 0.5 1 2.5
v 0.5 2 2.5
v 8.5 13 2.5
v 8.5 19 2.5
v 9.5 13 2.5
v 9.5 19 2.5
v -1.5 1 1.5
v -1.5 2 1.5
v -0.5 0 1.5
v -0.5 1 1.5
v -0.5 2 1.5
v -0.5 10 1.5
v -0.5 11 1.5
v 0.5 0 1.5
v 0.5 1 1.5
v 0.5 2 1.5
v 0.5 10 1.5
v 0.5 11 1.5
v 1.5 1 1.5
v 1.5 2 1.5
v -9.5 12 -1.5
v -9.5 20 -1.5
v -8.5 12 -1.5
v -8.5 20 -1.5
v -6.5 11 -1.5
v -6.5 12 -1.5
v -5.5 11 -1.5
v -5.5 12 -1.5
v 8.5 12 -1.5
v 8.5 20 -1.5
v 9.5 12 -1.5
v 9.5 20 -1.5
v -9.5 12 3.5
v -9.5 20 3.5
v -8.5 12 3.5
v -8.5 20 3.5
v 8.5 12 3.5
v 8.5 20 3.5
v 9.5 12 3.5
v 9.5 20 3.5
v -1.5 1 0.5
v -1.5 2 0.5
v -0.5 0 0.5
v -0.5 1 0.5
v -0.5 2 0.5
v -0.5 10 0.5
v -0.5 11 0.5
v 0.5 0 0.5
v 0.5 1 0.5
v 0.5 2 0.5
v 0.5 10 0.5
v 0.5 11 0.5
v 1.5 1 0.5
v 1.5 2 0.5
v -9.5 13 -0.5
v -9.5 19 -0.5
v -8.5 13 -0.5
v -8.5 19 -0.5
v -6.5 11 -0.5
v -6.5 12 -0.5
v -5.5 11 -0.5
v -5.5 12 -0.5
v -0.5 1 -0.5
v -0.5 2 -0.5
v 0.5 1 -0.5
v 0.5 2 -0.5
v 8.5 13 -0.5
v 8.5 19 -0.5
v 9.5 13 -0.5
v 9.5 19 -0.5
v -7.5 12 -1.5
v -7.5 20 -1.5
v -6.5 12 -1.5
v -6.5 20 -1.5
v -2.5 15 -1.5
v -2.5 17 -1.5
v -1.5 14 -1.5
v -1.5 15 -1.5
v -0.5 13 -1.5
v -0.5 14 -1.5
v -0.5 19 -1.5
v -0.5 20 -1.5
v 0.5 12 -1.5
v 0.5 13 -1.5
v 0.5 15 -1.5
v 0.5 17 -1.5
v 0.5 19 -1.5
v 0.5 20 -1.5
v 1.5 12 -1.5
v 1.5 13 -1.5
v 1.5 18 -1.5
v 1.5 19 -1.5
v 2.5 17 -1.5
v 2.5 18 -1.5
v 3.5 15 -1.5
v 3.5 17 -1.5
v 6.5 12 -1.5
v 6.5 20 -1.5
v 7.5 12 -1.5
v 7.5 20 -1.5
v -9.5 11 -2.5
v -9.5 21 -2.5
v -7.5 11 -2.5
v -7.5 21 -2.5
v -6.5 11 -2.5
v -6.5 21 -2.5
v -2.5 15 -2.5
v -2.5 17 -2.5
v -1.5 14 -2.5
v -1.5 15 -2.5
v -0.5 13 -2.5
v -0.5 14 -2.5
v -0.5 19 -2.5
v -0.5 20 -2.5
v 0.5 12 -2.5
v 0.5 13 -2.5
v 0.5 15 -2.5
v 0.5 17 -2.5
v 0.5 19 -2.5
v 0.5 20 -2.5
v 1.5 12 -2.5
v 1.5 13 -2.5
v 1.5 18 -2.5
v 1.5 19 -2.5
v 2.5 17 -2.5
v 2.5 18 -2.5
v 3.5 15 -2.5
v 3.5 17 -2.5
v 6.5 11 -2.5
v 6.5 21 -2.5
v 7.5 11 -2.5
v 7.5 21 -2.5
v 9.5 11 -2.5
v 9.5 21 -2.5
v -0.5 0 1.5
v 0.5 0 1.5
v -0.5 0 0.5
v 0.5 0 0.5
v -0.5 1 2.5
v 0.5 1 2.5
v -1.5 1 1.5
v -0.5 1 1.5
v 0.5 1 1.5
v 1.5 1 1.5
v -1.5 1 0.5
v -0.5 1 0.5
v 0.5 1 0.5
v 1.5 1 0.5
v -0.5 1 -0.5
v 0.5 1 -0.5
v -9.5 11 4.5
v -7.5 11 4.5
v -6.5 11 4.5
v 6.5 11 4.5
v 7.5 11 4.5
v 9.5 11 4.5
v -0.5 11 1.5
v 0.5 11 1.5
v -0.5 11 0.5
v 0.5 11 0.5
v -6.5 11 -0.5
v -5.5 11 -0.5
v -6.5 11 -1.5
v -5.5 11 -1.5
v -9.5 11 -2.5
v -7.5 11 -2.5
v -6.5 11 -2.5
v 6.5 11 -2.5
v 7.5 11 -2.5
v 9.5 11 -2.5
v -7.5 12 3.5
v -6.5 12 3.5
v 6.5 12 3.5
v 7.5 12 3.5
v -6.5 12 -0.5
v -5.5 12 -0.5
v -7.5 12 -1.5
v -6.5 12 -1.5
v -5.5 12 -1.5
v 6.5 12 -1.5
v 7.5 12 -1.5
v -3.5 13 4.5
v -2.5 13 4.5
v -3.5 13 3.5
v -2.5 13 3.5
v -9.5 13 2.5
v -8.5 13 2.5
v 8.5 13 2.5
v 9.5 13 2.5
v -9.5 13 -0.5
v -8.5 13 -0.5
v 8.5 13 -0.5
v 9.5 13 -0.5
v 0.5 13 -1.5
v 1.5 13 -1.5
v 0.5 13 -2.5
v 1.5 13 -2.5
v -4.5 15 4.5
v -1.5 15 4.5
v 0.5 15 4.5
v 3.5 15 4.5
v -4.5 15 3.5
v -1.5 15 3.5
v 0.5 15 3.5
v 3.5 15 3.5
v -2.5 17 4.5
v -1.5 17 4.5
v -2.5 17 3.5
v -1.5 17 3.5
v -2.5 17 -1.5
v 0.5 17 -1.5
v 2.5 17 -1.5
v 3.5 17 -1.5
v -2.5 17 -2.5
v 0.5 17 -2.5
v 2.5 17 -2.5
v 3.5 17 -2.5
v 1.5 18 -1.5
v 2.5 18 -1.5
v 1.5 18 -2.5
v 2.5 18 -2.5
v -4.5 19 4.5
v -3.5 19 4.5
v -2.5 19 4.5
v -1.5 19 4.5
v 1.5 19 4.5
v 3.5 19 4.5
v -4.5 19 3.5
v -3.5 19 3.5
v -2.5 19 3.5
v -1.5 19 3.5
v 1.5 19 3.5
v 3.5 19 3.5
v 0.5 19 -1.5
v 1.5 19 -1.5
v 0.5 19 -2.5
v 1.5 19 -2.5
v -3.5 20 4.5
v -2.5 20 4.5
v 0.5 20 4.5
v 1.5 20 4.5
v -9.5 20 3.5
v -8.5 20 3.5
v -3.5 20 3.5
v -2.5 20 3.5
v 0.5 20 3.5
v 1.5 20 3.5
v 8.5 20 3.5
v 9.5 20 3.5
v -9.5 20 -1.5
v -8.5 20 -1.5
v -0.5 20 -1.5
v 0.5 20 -1.5
v 8.5 20 -1.5
v 9.5 20 -1.5
v -0.5 20 -2.5
v 0.5 20 -2.5
v -0.5 2 2.5
v 0.5 2 2.5
v -1.5 2 1.5
v -0.5 2 1.5
v 0.5 2 1.5
v 1.5 2 1.5
v -1.5 2 0.5
v -0.5 2 0.5
v 0.5 2 0.5
v 1.5 2 0.5
v -0.5 2 -0.5
v 0.5 2 -0.5
v -4.5 12 4.5
v -1.5 12 4.5
v 0.5 12 4.5
v 1.5 12 4.5
v -9.5 12 3.5
v -8.5 12 3.5
v -4.5 12 3.5
v -1.5 12 3.5
v 0.5 12 3.5
v 1.5 12 3.5
v 8.5 12 3.5
v 9.5 12 3.5
v -9.5 12 -1.5
v -8.5 12 -1.5
v 0.5 12 -1.5
v 1.5 12 -1.5
v 8.5 12 -1.5
v 9.5 12 -1.5
v 0.5 12 -2.5
v 1.5 12 -2.5
v 2.5 13 4.5
v 3.5 13 4.5
v 2.5 13 3.5
v 3.5 13 3.5
v -0.5 13 -1.5
v 0.5 13 -1.5
v -0.5 13 -2.5
v 0.5 13 -2.5
v -3.5 14 4.5
v -2.5 14 4.5
v 1.5 14 4.5
v 2.5 14 4.5
v -3.5 14 3.5
v -2.5 14 3.5
v 1.5 14 3.5
v 2.5 14 3.5
v -1.5 14 -1.5
v -0.5 14 -1.5
v -1.5 14 -2.5
v -0.5 14 -2.5
v -2.5 15 -1.5
v -1.5 15 -1.5
v 0.5 15 -1.5
v 3.5 15 -1.5
v -2.5 15 -2.5
v -1.5 15 -2.5
v 0.5 15 -2.5
v 3.5 15 -2.5
v -3.5 16 4.5
v -1.5 16 4.5
v 0.5 16 4.5
v 1.5 16 4.5
v 2.5 16 4.5
v 3.5 16 4.5
v -3.5 16 3.5
v -1.5 16 3.5
v 0.5 16 3.5
v 1.5 16 3.5
v 2.5 16 3.5
v 3.5 16 3.5
v -4.5 18 4.5
v -3.5 18 4.5
v -2.5 18 4.5
v -1.5 18 4.5
v 1.5 18 4.5
v 2.5 18 4.5
v -4.5 18 3.5
v -3.5 18 3.5
v -2.5 18 3.5
v -1.5 18 3.5
v 1.5 18 3.5
v 2.5 18 3.5
v -9.5 19 2.5
v -8.5 19 2.5
v 8.5 19 2.5
v 9.5 19 2.5
v -9.5 19 -0.5
v -8.5 19 -0.5
v 8.5 19 -0.5
v 9.5 19 -0.5
v -0.5 19 -1.5
v 0.5 19 -1.5
v -0.5 19 -2.5
v 0.5 19 -2.5
v -7.5 20 3.5
v -6.5 20 3.5
v 6.5 20 3.5
v 7.5 20 3.5
v -7.5 20 -1.5
v -6.5 20 -1.5
v 6.5 20 -1.5
v 7.5 20 -1.5
v -9.5 21 4.5
v -7.5 21 4.5
v -6.5 21 4.5
v 6.5 21 4.5
v 7.5 21 4.5
v 9.5 21 4.5
v -9.5 21 -2.5
v -7.5 21 -2.5
v -6.5 21 -2.5
v 6.5 21 -2.5
v 7.5 21 -2.5
v 9.5 21 -2.5

# faces
f 3/1/1 2/1/1 1/1/1
f 4/1/1 2/1/1 3/1/1
f 7/1/1 6/1/1 5/1/1
f 8/1/1 6/1/1 7/1/1
f 9/1/1 3/1/1 1/1/1
f 10/1/1 2/1/1 4/1/1
f 11/1/1 9/1/1 1/1/1
f 11/1/1 10/1/1 9/1/1
f 12/1/1 2/1/1 10/1/1
f 12/1/1 10/1/1 11/1/1
f 15/1/1 14/1/1 13/1/1
f 16/1/1 14/1/1 15/1/1
f 17/1/1 15/1/1 13/1/1
f 18/1/1 14/1/1 16/1/1
f 19/1/1 17/1/1 13/1/1
f 19/1/1 18/1/1 17/1/1
f 20/1/1 14/1/1 18/1/1
f 20/1/1 18/1/1 19/1/1
f 25/1/1 22/1/1 21/1/1
f 26/1/1 22/1/1 25/1/1
f 27/1/1 24/1/1 23/1/1
f 28/1/1 25/1/1 21/1/1
f 29/1/1 24/1/1 27/1/1
f 30/1/1 28/1/1 21/1/1
f 30/1/1 29/1/1 28/1/1
f 31/1/1 24/1/1 29/1/1
f 31/1/1 29/1/1 30/1/1
f 34/1/1 33/1/1 32/1/1
f 35/1/1 33/1/1 34/1/1
f 38/1/1 37/1/1 36/1/1
f 39/1/1 37/1/1 38/1/1
f 42/1/1 41/1/1 40/1/1
f 43/1/1 41/1/1 42/1/1
f 46/1/1 45/1/1 44/1/1
f 47/1/1 45/1/1 46/1/1
f 50/2/1 49/2/1 48/2/1
f 51/2/1 49/2/1 50/2/1
f 54/1/1 53/1/1 52/1/1
f 55/1/1 53/1/1 54/1/1
f 58/1/1 57/1/1 56/1/1
f 59/1/1 57/1/1 58/1/1
f 62/1/1 61/1/1 60/1/1
f 63/1/1 61/1/1 62/1/1
f 67/2/1 65/2/1 64/2/1
f 68/2/1 65/2/1 67/2/1
f 70/2/1 67/2/1 66/2/1
f 71/2/1 67/2/1 70/2/1
f 72/2/1 69/2/1 68/2/1
f 73/2/1 69/2/1 72/2/1
f 74/3/1 72/3/1 71/3/1
f 75/3/1 72/3/1 74/3/1
f 76/2/1 75/2/1 74/2/1
f 77/2/1 75/2/1 76/2/1
f 80/1/1 79/1/1 78/1/1
f 81/1/1 79/1/1 80/1/1
f 84/1/1 83/1/1 82/1/1
f 85/1/1 83/1/1 84/1/1
f 90/1/1 89/1/1 88/1/1
f 91/1/1 89/1/1 90/1/1
f 92/1/1 87/1/1 86/1/1
f 93/1/1 87/1/1 92/1/1
f 96/1/1 95/1/1 94/1/1
f 97/1/1 95/1/1 96/1/1
f 102/1/1 99/1/1 98/1/1
f 103/1/1 99/1/1 102/1/1
f 104/1/1 101/1/1 100/1/1
f 105/1/1 101/1/1 104/1/1
f 108/1/1 107/1/1 106/1/1
f 109/1/1 107/1/1 108/1/1
f 112/1/1 111/1/1 110/1/1
f 113/1/1 111/1/1 112/1/1
f 118/1/1 115/1/1 114/1/1
f 119/1/1 115/1/1 118/1/1
f 120/1/1 117/1/1 116/1/1
f 121/1/1 117/1/1 120/1/1
f 124/1/1 123/1/1 122/1/1
f 125/1/1 123/1/1 124/1/1
f 126/1/1 124/1/1 122/1/1
f 127/1/1 123/1/1 125/1/1
f 128/1/1 126/1/1 122/1/1
f 128/1/1 127/1/1 126/1/1
f 129/1/1 123/1/1 127/1/1
f 129/1/1 127/1/1 128/1/1
f 130/1/2 131/1/2 132/1/2
f 132/1/2 131/1/2 133/1/2
f 130/1/2 132/1/2 134/1/2
f 133/1/2 131/1/2 135/1/2
f 130/1/2 134/1/2 136/1/2
f 134/1/2 135/1/2 136/1/2
f 135/1/2 131/1/2 137/1/2
f 136/1/2 135/1/2 137/1/2
f 138/1/2 139/1/2 140/1/2
f 140/1/2 139/1/2 141/1/2
f 142/1/2 143/1/2 144/1/2
f 144/1/2 143/1/2 145/1/2
f 146/1/2 147/1/2 148/1/2
f 148/1/2 147/1/2 149/1/2
f 150/1/2 151/1/2 152/1/2
f 152/1/2 151/1/2 153/1/2
f 154/1/2 155/1/2 156/1/2
f 156/1/2 155/1/2 157/1/2
f 158/1/2 159/1/2 160/1/2
f 160/1/2 159/1/2 161/1/2
f 162/1/2 163/1/2 164/1/2
f 164/1/2 163/1/2 165/1/2
f 166/1/2 167/1/2 168/1/2
f 168/1/2 167/1/2 169/1/2
f 170/1/2 171/1/2 172/1/2
f 172/1/2 171/1/2 173/1/2
f 174/2/2 175/2/2 177/2/2
f 177/2/2 175/2/2 178/2/2
f 176/2/2 177/2/2 180/2/2
f 180/2/2 177/2/2 181/2/2
f 178/2/2 179/2/2 182/2/2
f 182/2/2 179/2/2 183/2/2
f 181/3/2 182/3/2 184/3/2
f 184/3/2 182/3/2 185/3/2
f 184/2/2 185/2/2 186/2/2
f 186/2/2 185/2/2 187/2/2
f 190/1/2 191/1/2 192/1/2
f 192/1/2 191/1/2 193/1/2
f 188/1/2 189/1/2 194/1/2
f 194/1/2 189/1/2 195/1/2
f 198/1/2 199/1/2 200/1/2
f 200/1/2 199/1/2 201/1/2
f 196/1/2 197/1/2 202/1/2
f 202/1/2 197/1/2 203/1/2
f 204/2/2 205/2/2 206/2/2
f 206/2/2 205/2/2 207/2/2
f 208/1/2 209/1/2 210/1/2
f 210/1/2 209/1/2 211/1/2
f 212/1/2 213/1/2 214/1/2
f 214/1/2 213/1/2 215/1/2
f 216/1/2 217/1/2 218/1/2
f 218/1/2 217/1/2 219/1/2
f 216/1/2 218/1/2 220/1/2
f 219/1/2 217/1/2 221/1/2
f 216/1/2 220/1/2 222/1/2
f 220/1/2 221/1/2 222/1/2
f 221/1/2 217/1/2 223/1/2
f 222/1/2 221/1/2 223/1/2
f 224/1/2 225/1/2 226/1/2
f 226/1/2 225/1/2 227/1/2
f 224/1/2 226/1/2 228/1/2
f 227/1/2 225/1/2 229/1/2
f 224/1/2 228/1/2 230/1/2
f 228/1/2 229/1/2 230/1/2
f 229/1/2 225/1/2 231/1/2
f 230/1/2 229/1/2 231/1/2
f 232/1/2 233/1/2 234/1/2
f 234/1/2 233/1/2 235/1/2
f 236/1/2 237/1/2 238/1/2
f 238/1/2 237/1/2 239/1/2
f 232/1/2 234/1/2 240/1/2
f 235/1/2 233/1/2 241/1/2
f 232/1/2 240/1/2 242/1/2
f 240/1/2 241/1/2 242/1/2
f 241/1/2 233/1/2 243/1/2
f 242/1/2 241/1/2 243/1/2
f 246/1/3 245/1/3 244/1/3
f 247/1/3 245/1/3 246/1/3
f 250/1/3 249/1/3 248/1/3
f 251/1/3 249/1/3 250/1/3
f 252/1/3 249/1/3 251/1/3
f 253/1/3 249/1/3 252/1/3
f 256/1/3 252/1/3 251/1/3
f 257/1/3 252/1/3 256/1/3
f 258/1/3 249/1/3 253/1/3
f 259/1/3 249/1/3 258/1/3
f 260/1/3 255/1/3 254/1/3
f 261/1/3 255/1/3 260/1/3
f 265/1/3 249/1/3 259/1/3
f 266/1/3 250/1/3 248/1/3
f 267/1/3 256/1/3 251/1/3
f 268/1/3 256/1/3 267/1/3
f 269/1/3 263/1/3 262/1/3
f 270/1/3 263/1/3 269/1/3
f 271/1/3 265/1/3 264/1/3
f 272/1/3 270/1/3 269/1/3
f 272/1/3 271/1/3 270/1/3
f 272/1/3 268/1/3 267/1/3
f 272/1/3 266/1/3 248/1/3
f 272/1/3 269/1/3 268/1/3
f 272/1/3 267/1/3 266/1/3
f 273/1/3 271/1/3 272/1/3
f 274/1/3 271/1/3 273/1/3
f 275/1/3 265/1/3 271/1/3
f 275/1/3 271/1/3 274/1/3
f 275/1/3 249/1/3 265/1/3
f 276/1/3 272/1/3 248/1/3
f 278/1/3 274/1/3 273/1/3
f 281/1/3 249/1/3 275/1/3
f 282/1/3 277/1/3 276/1/3
f 283/1/3 277/1/3 282/1/3
f 284/1/3 279/1/3 278/1/3
f 284/1/3 278/1/3 273/1/3
f 285/1/3 279/1/3 284/1/3
f 286/1/3 282/1/3 276/1/3
f 287/1/3 284/1/3 273/1/3
f 288/1/3 284/1/3 287/1/3
f 289/1/3 281/1/3 280/1/3
f 290/1/3 288/1/3 287/1/3
f 290/1/3 289/1/3 288/1/3
f 290/1/3 287/1/3 286/1/3
f 290/1/3 276/1/3 248/1/3
f 290/1/3 286/1/3 276/1/3
f 291/1/3 281/1/3 289/1/3
f 291/1/3 289/1/3 290/1/3
f 291/1/3 249/1/3 281/1/3
f 294/1/3 293/1/3 292/1/3
f 295/1/3 293/1/3 294/1/3
f 298/1/3 297/1/3 296/1/3
f 299/1/3 297/1/3 298/1/3
f 304/1/3 301/1/3 300/1/3
f 305/1/3 301/1/3 304/1/3
f 307/1/3 303/1/3 302/1/3
f 308/1/3 303/1/3 307/1/3
f 310/1/3 304/1/3 300/1/3
f 311/1/3 301/1/3 305/1/3
f 312/1/3 309/1/3 308/1/3
f 312/1/3 308/1/3 307/1/3
f 312/1/3 307/1/3 306/1/3
f 313/1/3 309/1/3 312/1/3
f 314/1/3 309/1/3 313/1/3
f 315/1/3 309/1/3 314/1/3
f 316/1/3 310/1/3 300/1/3
f 316/1/3 311/1/3 310/1/3
f 317/1/3 301/1/3 311/1/3
f 317/1/3 311/1/3 316/1/3
f 318/1/3 312/1/3 306/1/3
f 319/1/3 312/1/3 318/1/3
f 320/1/3 314/1/3 313/1/3
f 321/1/3 314/1/3 320/1/3
f 326/1/3 323/1/3 322/1/3
f 327/1/3 323/1/3 326/1/3
f 328/1/3 325/1/3 324/1/3
f 329/1/3 325/1/3 328/1/3
f 330/1/3 325/1/3 329/1/3
f 331/1/3 325/1/3 330/1/3
f 333/1/3 323/1/3 327/1/3
f 335/1/3 330/1/3 329/1/3
f 336/1/3 333/1/3 332/1/3
f 337/1/3 323/1/3 333/1/3
f 337/1/3 333/1/3 336/1/3
f 338/1/3 335/1/3 334/1/3
f 339/1/3 330/1/3 335/1/3
f 339/1/3 335/1/3 338/1/3
f 342/1/3 341/1/3 340/1/3
f 343/1/3 341/1/3 342/1/3
f 346/1/3 345/1/3 344/1/3
f 347/1/3 345/1/3 346/1/3
f 350/2/3 349/2/3 348/2/3
f 351/2/3 349/2/3 350/2/3
f 354/1/3 353/1/3 352/1/3
f 355/1/3 353/1/3 354/1/3
f 359/2/3 357/2/3 356/2/3
f 360/2/3 357/2/3 359/2/3
f 363/2/3 359/2/3 358/2/3
f 364/2/3 359/2/3 363/2/3
f 365/3/3 361/3/3 360/3/3
f 366/2/3 362/2/3 361/2/3
f 366/3/3 361/3/3 365/3/3
f 367/2/3 362/2/3 366/2/3
f 368/2/3 365/2/3 364/2/3
f 369/2/3 365/2/3 368/2/3
f 372/1/3 371/1/3 370/1/3
f 373/1/3 371/1/3 372/1/3
f 376/1/3 375/1/3 374/1/3
f 377/1/3 375/1/3 376/1/3
f 380/1/3 379/1/3 378/1/3
f 381/1/3 379/1/3 380/1/3
f 382/1/4 383/1/4 384/1/4
f 384/1/4 383/1/4 385/1/4
f 386/1/4 387/1/4 388/1/4
f 388/1/4 387/1/4 389/1/4
f 390/2/4 391/2/4 393/2/4
f 393/2/4 391/2/4 394/2/4
f 392/2/4 393/2/4 397/2/4
f 397/2/4 393/2/4 398/2/4
f 394/3/4 395/3/4 399/3/4
f 395/2/4 396/2/4 400/2/4
f 399/3/4 395/3/4 400/3/4
f 400/2/4 396/2/4 401/2/4
f 398/2/4 399/2/4 402/2/4
f 402/2/4 399/2/4 403/2/4
f 404/1/4 405/1/4 406/1/4
f 406/1/4 405/1/4 407/1/4
f 408/1/4 409/1/4 410/1/4
f 410/1/4 409/1/4 411/1/4
f 412/2/4 413/2/4 414/2/4
f 414/2/4 413/2/4 415/2/4
f 416/1/4 417/1/4 418/1/4
f 418/1/4 417/1/4 419/1/4
f 420/1/4 421/1/4 422/1/4
f 422/1/4 421/1/4 423/1/4
f 424/1/4 425/1/4 427/1/4
f 426/1/4 427/1/4 429/1/4
f 428/1/4 429/1/4 433/1/4
f 427/1/4 425/1/4 434/1/4
f 429/1/4 427/1/4 434/1/4
f 433/1/4 429/1/4 434/1/4
f 434/1/4 425/1/4 435/1/4
f 430/1/4 431/1/4 436/1/4
f 436/1/4 431/1/4 437/1/4
f 432/1/4 433/1/4 438/1/4
f 438/1/4 433/1/4 439/1/4
f 434/1/4 435/1/4 440/1/4
f 435/1/4 436/1/4 440/1/4
f 440/1/4 436/1/4 441/1/4
f 434/1/4 440/1/4 442/1/4
f 442/1/4 440/1/4 443/1/4
f 434/1/4 442/1/4 444/1/4
f 444/1/4 442/1/4 445/1/4
f 446/1/4 447/1/4 448/1/4
f 448/1/4 447/1/4 449/1/4
f 450/1/4 451/1/4 452/1/4
f 452/1/4 451/1/4 453/1/4
f 454/1/4 455/1/4 456/1/4
f 456/1/4 455/1/4 457/1/4
f 454/1/4 456/1/4 458/1/4
f 458/1/4 456/1/4 459/1/4
f 454/1/4 458/1/4 460/1/4
f 460/1/4 458/1/4 461/1/4
f 457/1/4 455/1/4 462/1/4
f 462/1/4 455/1/4 463/1/4
f 454/1/4 460/1/4 464/1/4
f 464/1/4 460/1/4 465/1/4
f 457/1/4 462/1/4 467/1/4
f 467/1/4 462/1/4 468/1/4
f 463/1/4 455/1/4 469/1/4
f 454/1/4 464/1/4 470/1/4
f 465/1/4 466/1/4 471/1/4
f 468/1/4 469/1/4 473/1/4
f 472/1/4 473/1/4 475/1/4
f 470/1/4 471/1/4 476/1/4
f 471/1/4 466/1/4 476/1/4
f 474/1/4 475/1/4 477/1/4
f 470/1/4 476/1/4 478/1/4
f 476/1/4 477/1/4 478/1/4
f 454/1/4 470/1/4 478/1/4
f 477/1/4 475/1/4 479/1/4
f 478/1/4 477/1/4 479/1/4
f 469/1/4 455/1/4 479/1/4
f 475/1/4 473/1/4 479/1/4
f 473/1/4 469/1/4 479/1/4
f 480/1/4 481/1/4 482/1/4
f 482/1/4 481/1/4 483/1/4
f 486/2/5 485/2/5 484/2/5
f 487/2/5 485/2/5 486/2/5
f 491/2/5 489/2/5 488/2/5
f 492/2/5 489/2/5 491/2/5
f 494/2/5 491/2/5 490/2/5
f 495/2/5 491/2/5 494/2/5
f 496/2/5 493/2/5 492/2/5
f 497/2/5 493/2/5 496/2/5
f 498/2/5 496/2/5 495/2/5
f 499/2/5 496/2/5 498/2/5
f 506/1/5 503/1/5 502/1/5
f 507/1/5 503/1/5 506/1/5
f 508/1/5 506/1/5 502/1/5
f 509/1/5 503/1/5 507/1/5
f 510/1/5 508/1/5 502/1/5
f 510/1/5 509/1/5 508/1/5
f 511/1/5 509/1/5 510/1/5
f 513/1/5 509/1/5 511/1/5
f 514/1/5 501/1/5 500/1/5
f 515/1/5 501/1/5 514/1/5
f 516/1/5 513/1/5 512/1/5
f 517/1/5 503/1/5 509/1/5
f 517/1/5 513/1/5 516/1/5
f 517/1/5 509/1/5 513/1/5
f 518/1/5 505/1/5 504/1/5
f 519/1/5 505/1/5 518/1/5
f 524/1/5 521/1/5 520/1/5
f 526/1/5 524/1/5 520/1/5
f 526/1/5 525/1/5 524/1/5
f 527/1/5 525/1/5 526/1/5
f 528/1/5 525/1/5 527/1/5
f 529/1/5 523/1/5 522/1/5
f 530/1/5 523/1/5 529/1/5
f 533/1/5 532/1/5 531/1/5
f 534/1/5 532/1/5 533/1/5
f 539/1/5 536/1/5 535/1/5
f 540/1/5 536/1/5 539/1/5
f 541/1/5 538/1/5 537/1/5
f 542/1/5 538/1/5 541/1/5
f 545/1/5 544/1/5 543/1/5
f 546/1/5 544/1/5 545/1/5
f 551/1/5 548/1/5 547/1/5
f 552/1/5 548/1/5 551/1/5
f 553/1/5 550/1/5 549/1/5
f 554/1/5 550/1/5 553/1/5
f 557/1/5 556/1/5 555/1/5
f 558/1/5 556/1/5 557/1/5
f 563/1/5 560/1/5 559/1/5
f 564/1/5 560/1/5 563/1/5
f 565/1/5 562/1/5 561/1/5
f 566/1/5 562/1/5 565/1/5
f 569/1/5 568/1/5 567/1/5
f 570/1/5 568/1/5 569/1/5
f 577/1/5 572/1/5 571/1/5
f 578/1/5 572/1/5 577/1/5
f 579/1/5 574/1/5 573/1/5
f 580/1/5 574/1/5 579/1/5
f 581/1/5 576/1/5 575/1/5
f 582/1/5 576/1/5 581/1/5
f 585/1/5 584/1/5 583/1/5
f 586/1/5 584/1/5 585/1/5
f 593/1/5 588/1/5 587/1/5
f 594/1/5 588/1/5 593/1/5
f 595/1/5 590/1/5 589/1/5
f 596/1/5 590/1/5 595/1/5
f 599/1/5 592/1/5 591/1/5
f 600/1/5 592/1/5 599/1/5
f 603/1/5 598/1/5 597/1/5
f 604/1/5 598/1/5 603/1/5
f 605/1/5 602/1/5 601/1/5
f 606/1/5 602/1/5 605/1/5
f 607/2/6 608/2/6 610/2/6
f 610/2/6 608/2/6 611/2/6
f 609/2/6 610/2/6 613/2/6
f 613/2/6 610/2/6 614/2/6
f 611/2/6 612/2/6 615/2/6
f 615/2/6 612/2/6 616/2/6
f 614/2/6 615/2/6 617/2/6
f 617/2/6 615/2/6 618/2/6
f 619/1/6 620/1/6 625/1/6
f 625/1/6 620/1/6 626/1/6
f 621/1/6 622/1/6 627/1/6
f 627/1/6 622/1/6 628/1/6
f 623/1/6 624/1/6 631/1/6
f 631/1/6 624/1/6 632/1/6
f 629/1/6 630/1/6 635/1/6
f 635/1/6 630/1/6 636/1/6
f 633/1/6 634/1/6 637/1/6
f 637/1/6 634/1/6 638/1/6
f 639/1/6 640/1/6 641/1/6
f 641/1/6 640/1/6 642/1/6
f 643/1/6 644/1/6 645/1/6
f 645/1/6 644/1/6 646/1/6
f 647/1/6 648/1/6 651/1/6
f 651/1/6 648/1/6 652/1/6
f 649/1/6 650/1/6 653/1/6
f 653/1/6 650/1/6 654/1/6
f 655/1/6 656/1/6 657/1/6
f 657/1/6 656/1/6 658/1/6
f 659/1/6 660/1/6 663/1/6
f 663/1/6 660/1/6 664/1/6
f 661/1/6 662/1/6 665/1/6
f 665/1/6 662/1/6 666/1/6
f 667/1/6 668/1/6 673/1/6
f 673/1/6 668/1/6 674/1/6
f 669/1/6 670/1/6 675/1/6
f 675/1/6 670/1/6 676/1/6
f 671/1/6 672/1/6 677/1/6
f 677/1/6 672/1/6 678/1/6
f 679/1/6 680/1/6 685/1/6
f 685/1/6 680/1/6 686/1/6
f 681/1/6 682/1/6 687/1/6
f 687/1/6 682/1/6 688/1/6
f 683/1/6 684/1/6 689/1/6
f 689/1/6 684/1/6 690/1/6
f 691/1/6 692/1/6 695/1/6
f 695/1/6 692/1/6 696/1/6
f 693/1/6 694/1/6 697/1/6
f 697/1/6 694/1/6 698/1/6
f 699/1/6 700/1/6 701/1/6
f 701/1/6 700/1/6 702/1/6
f 703/1/6 704/1/6 707/1/6
f 707/1/6 704/1/6 708/1/6
f 705/1/6 706/1/6 709/1/6
f 709/1/6 706/1/6 710/1/6
f 711/1/6 712/1/6 717/1/6
f 717/1/6 712/1/6 718/1/6
f 713/1/6 714/1/6 719/1/6
f 719/1/6 714/1/6 720/1/6
f 715/1/6 716/1/6 721/1/6
f 721/1/6 716/1/6 722/1/6
